<?xml version="1.0" encoding="utf-8"?>
<!-- Generator: Adobe Illustrator 27.9.0, SVG Export Plug-In . SVG Version: 6.00 Build 0)  -->
<svg version="1.1" id="Layer_1" xmlns="http://www.w3.org/2000/svg" xmlns:xlink="http://www.w3.org/1999/xlink" x="0px" y="0px"
	 viewBox="0 0 300 300" style="enable-background:new 0 0 300 300;" xml:space="preserve">
<style type="text/css">
	.st0{fill:#231F20;}
</style>
<g>
	<path class="st0" d="M134.06,266.92c-0.51-0.33-1.02-0.66-1.53-0.99c-0.46,1.13-0.79,2.36-1.42,3.38
		c-4.42,7.16-9.98,13.05-17.37,16.86c-8.51,4.39-17.06,6.97-26.29,1.77c-2.12-1.19-4.67-1.57-7.05-2.17
		c-8.82-2.25-16.54-6.89-22.55-13.81c-8.55-9.84-12.72-21.54-9.74-34.95c3.63-16.38,8.63-32.1,20.85-44.01
		c4.81-4.69,9.48-9.55,14.12-14.43c7.36-7.73,8.15-13.16,3.54-22.99c-1.66-3.54-3.43-7.04-4.94-10.65
		c-7.39-17.71-7.41-34.89,3.81-50.8c2.62-3.72,3.97-6.72,1.08-10.83c-1.38-1.97-0.98-3.59,1.4-4.83c3.66-1.9,4.21-5.79,1.1-8.49
		c-2.17-1.88-2.95-3.2-1.44-6.03c0.5-0.93-0.69-3.7-1.83-4.57c-1.68-1.27-3.05-0.21-3.45,2.13c-0.1,0.61-1.95,1.54-2.13,1.36
		c-2.56-2.58-5.62-4.97-7.15-8.15c-0.8-1.68,0.5-5.41,1.99-7.13c3.76-4.36,8.64-5.99,14.41-4.38c10.54,2.94,18.08,10.29,25.17,18.41
		c3.07,3.52,6.13,7.04,9.33,10.42c0.85,0.9,2.36,2.02,3.28,1.8c4.97-1.2,10.56-1.68,14.61-4.49c8.85-6.15,16.23-14.23,21.06-24.41
		c6.17-12.98,16.32-20.43,29.4-24.25c10.04-2.93,20.18-4.38,30.63-4.03c2.61,0.09,5.72-0.25,7.74-1.71c1.94-1.4,2.77-4.49,4.65-7.85
		c-0.16,2.98-0.28,5.15-0.4,7.29c5.01-0.94,4.78-5.75,6.58-9.25c-0.03,1.88-0.05,3.76-0.08,5.64c0.27,0.15,0.54,0.3,0.81,0.45
		c2.39-2.85,4.77-5.69,7.16-8.54c0.17,0.07,0.34,0.14,0.51,0.21c-1.16,2.4-2.32,4.8-3.47,7.16c1.62,0.58,3.37,1.2,5.11,1.82
		c-3.55,0.63-7.2-1.57-10.07,1.97c1.06,1.14,1.94,2.08,2.82,3.03c-0.13,0.42-0.26,0.84-0.39,1.25c-4.39-6.26-7.64-0.2-11.41-0.28
		c5.11,2.39,10.33,4.11,15.12,6.71c7.1,3.85,13.89,8.37,23.31,6.24c-3.44,4.62-7.36,1.86-11.79,3.01c3.47,2.21,5.93,4.15,8.67,5.43
		c2.75,1.28,5.77,1.9,8.67,2.81c-0.06,0.32-0.12,0.64-0.18,0.95c-3.22-0.55-6.45-1.09-10.29-1.74c1.03,1.44,1.56,2.93,2.54,3.42
		c5.5,2.77,11.11,5.31,16.68,7.92c0.02,0.15,0.03,0.29,0.05,0.44c-4.28-0.95-8.55-1.89-12.83-2.84c-0.21,0.34-0.42,0.68-0.63,1.02
		c2.04,1.5,3.98,3.18,6.14,4.44c2.4,1.4,5.01,2.42,7.53,3.6c-0.11,0.31-0.21,0.63-0.32,0.94c-2.9-1.03-5.8-2.06-8.44-3.01
		c1.35,3.99,2.65,7.82,3.95,11.64c-0.28,0.1-0.57,0.21-0.85,0.31c-2.54-5.05-5.09-10.11-7.63-15.16c-0.22,0.12-0.44,0.24-0.66,0.37
		c-0.12,1.92-0.25,3.84-0.37,5.77c-2-5.77-1.25-12.29-7.2-16.83l0.9,10.74l-1.19,0.14c-0.29-6.09-0.95-12.07-4.79-17.11l0.42,5.02
		c-2.43-11.05-10.83-14.62-19.17-18.27c-0.25,0.34-0.5,0.68-0.75,1.02c3.98,2.98,7.97,5.95,11.95,8.93
		c-0.06,0.2-0.13,0.41-0.19,0.61l-5.55-2.04c-0.23,0.36-0.45,0.73-0.68,1.09c3.14,2.75,6.28,5.51,9.43,8.26
		c-0.08,0.16-0.16,0.32-0.24,0.48l-5.51-3.07c-0.27,0.29-0.53,0.58-0.8,0.88c2.9,3.27,5.79,6.54,8.69,9.81
		c-0.08,0.08-0.15,0.16-0.23,0.24c-1.64-1.16-3.29-2.32-4.93-3.48c0.57,3.54,2.42,6.42,3.12,9.58c0.67,3,0.14,6.29,0.14,9.46
		c-0.22,0.03-0.43,0.05-0.65,0.08c-0.58-2.93-1.17-5.85-1.96-9.85c-0.95,2.04-1.43,3.08-1.91,4.12c-0.13-0.17-0.27-0.34-0.4-0.51
		c0.48-2.74,0.97-5.49,1.45-8.23c-0.38-0.09-0.76-0.19-1.14-0.28c-0.76,1.44-1.53,2.87-2.29,4.31c-0.32-0.06-0.64-0.12-0.96-0.18
		c1.19-5.22,2.4-10.45-0.94-15.55c-0.77,1.96-1.36,3.47-1.95,4.98c0-10.91-0.03-11.04-3.01-13.25c-0.5,2.07-1.04,4.29-1.58,6.5
		c-0.49-0.1-0.99-0.21-1.48-0.31c0.04-1.26,0.23-2.55,0.08-3.78c-0.41-3.38,0.24-7.32-3.51-9.27c-9.28-4.83-18.96-5.56-29.24-2.41
		c5.6,2.62,11.19,5.25,17.54,8.23c-2.84-0.52-4.93-0.9-7.05-1.28c1.63,2.88,3.16,5.59,4.69,8.29c-0.15,0.06-0.29,0.12-0.44,0.18
		c-3.35-3.65-6.69-7.3-10.04-10.95c-0.2,0.23-0.4,0.46-0.61,0.68c0.59,2.09,1.18,4.17,1.77,6.26l-1.22,0.34
		c-0.21-0.84-0.36-1.7-0.63-2.51c-1.84-5.54-6.09-9.58-10.35-8.67c-7.32,1.57-14.4,4.07-20.12,9.66c2.18,0.99,4.14,2.03,6.19,2.77
		c2.02,0.73,4.12,1.32,6.22,1.68c1.99,0.34,4.04,0.31,6.07,0.44c-0.01,0.21-0.02,0.41-0.02,0.62l-7.2,0.6
		c8.4,8.23,9.47,10.02,8.48,13.53c-1.56-2.53-3.25-5.26-5.44-8.8c-0.2,3.17-0.33,5.15-0.46,7.13c-0.33-0.02-0.66-0.04-1-0.06
		c-0.31-5.5-1.44-10.48-6.91-12.64c0.55,2.93,1.09,5.83,1.63,8.74c-0.37,0.07-0.75,0.15-1.12,0.22c0.03-4.11-2.67-9.86-5.27-10.48
		c-4.1-0.97-6.85,1.31-9.02,4.7c-5.38,8.4-10.84,16.74-16.2,25.16c-2.19,3.44-1.48,6.65,1.09,9.63c5.84,6.75,10.45,7.81,18.18,3.78
		c2.52-1.31,4.79-3.15,7.1-4.87c4.62-3.45,9.06-7.16,13.78-10.44c9.28-6.44,21.24-3.35,26.43,6.73c1.28,2.48,2.37,5.21-0.62,7.41
		c-7.87-7.47-10.57-7.13-12.42,1.56c-2.25-0.34-4.75-1.47-6.74-0.85c-4.15,1.3-0.2,4.17-0.8,6.15c-1.53,1.88-3.28,3.76-3.89,5.99
		c-1.63,5.97-2.79,12.09-4.11,18.15c-0.93,4.28,0.1,7.77,3.01,11.19c5.1,6,5.71,14.35,1.24,19.76c-3.41,4.13-7.19,9.01-11.78,10.72
		c-7.03,2.61-8.8,9.02-12.03,14.24c-2.03,3.28-4.09,5.19-7.52,6.1c-3.86,1.03-7.72,2.13-11.43,3.63
		c-9.77,3.95-12.9,9.55-12.94,20.56c-0.03,7.16-1.17,14.3-1.41,21.47c-0.12,3.68,0,7.62,1.12,11.05c2.28,7.04,5.25,13.85,8.03,20.7
		c2.9,7.12,1.68,14.05-1.61,20.31c-1.26,2.39-4.73,4.28-7.45,4.7c-1.38,0.21-3.33-3.34-4.99-5.22
		C134.5,267.89,134.31,267.37,134.06,266.92 M189.29,125.4c-1.69-3.13-4.11-5.4-7.64-5.02c-3.13,0.34-7.42,5.74-7.57,9.33
		c-0.19,4.85-0.07,9.73,0.03,14.59c0.06,2.66,1.19,3.39,3.8,2.58c5.41-1.67,9.11-5.47,11.99-10.17c2.5-4.07,2.03-7.92-0.76-11.43
		L189.29,125.4z M196.23,83.35c-0.17-2.07-0.26-3.54-0.43-5c-0.29-2.61,1.75-5.32,4.16-4.98c2.64,0.38,5.3,1.8,6.52-2.31
		c0.18-0.61,1.81-0.72,2.9-1.11c-5.59-2.74-13.04-1.53-16.76,3.11c-4.49,5.62-8.98,11.18-15.18,14.81
		c-2.32,1.36-4.81,2.41-7.62,3.79c0.12,0.58,0.39,1.77,0.62,2.83c-6.61-6.51-14.71-10.37-23.01-13.28
		c-8.58-3.01-17.38-2.86-25.69,2.58c0.5-1.01,1-2.02,1.55-3.15c-7.04-3.14-10.62-9.88-15-15.7c-4.25-5.65-8.75-10.8-15.32-13.45
		c-4.19-1.69-6.79-1.65-10.15,0.29c2.8,2.9,5.68,5.66,8.26,8.69c0.76,0.88,0.68,2.54,1.01,3.84c0.23,0.87,0.28,1.96,0.81,2.56
		c4.32,4.84,3.27,9.69,0.25,14.57c0.54,1,1.08,1.93,1.54,2.89c2.16,4.55,1.45,7.92-1.28,11.95c-2.42,3.57-4.1,7.68-6.35,12
		c2.94,0.22,5.04,0.38,7.14,0.54c0.07,0.35,0.13,0.69,0.2,1.04c-4.43,1.01-8.67,2.23-9.29,8.09c1.64,0.47,3.28,0.93,5.27,1.5
		c-6.76,5.48-6.85,5.68-5.32,10.67c2.39-0.69,4.71-1.62,7.11-1.93c1.28-0.17,2.69,0.75,4.04,1.18c-0.05,0.46-0.1,0.92-0.15,1.38
		c-1,0.08-2,0.12-3,0.26c-4.63,0.64-6.76,4.87-4.59,9.23c1.26,2.53,2.63,5,4,7.47c8.1,14.61,6.64,21.72-0.3,33.47
		c2.7,0.77,5.48,1.57,8.25,2.36c0.05,0.62,0.1,1.24,0.15,1.85c-11.22-1.81-18.57,5.67-26.61,10.58c4.97,1.26,10.03,2.54,15.1,3.83
		c-0.05,0.63-0.1,1.27-0.15,1.9c-2.93,0.04-5.87,0.08-8.8,0.13c-7.84,0.12-14.87,1.91-18.94,9.89c-0.18,0.35-0.27,0.75-0.38,1.13
		c-0.03,0.1,0.05,0.23,0.03,0.14c2.93-0.5,5.86-1,8.78-1.51c0.17,0.42,0.33,0.84,0.5,1.27c-2.17,1.68-4.12,3.96-6.55,4.9
		c-4.99,1.91-7.31,5.56-7.95,10.26c5.61-0.1,11.35-0.2,17.08-0.3c0.07,0.62,0.13,1.24,0.2,1.86c-3.71,0.76-7.41,1.55-11.12,2.26
		c-4.51,0.86-7.43,4.6-6.88,8.63c3.65-0.56,7.32-1.13,10.99-1.7c0.11,0.42,0.23,0.85,0.34,1.27c-1.97,1.08-3.99,2.09-5.91,3.26
		c-4.64,2.81-5.4,5.47-3.36,10.62c3.65,9.24,9.97,15.77,18.33,20.33c7.65,4.18,15.57,7.35,24.2,8.47
		c9.04,1.17,15.25-3.82,20.03-10.57c1.88-2.67,1.37-7.26,1.81-10.99c0.17-1.42-0.04-2.9,0.72-4.65c1.1,1.84,2.21,3.68,3.31,5.52
		c4.91-7.47,4.4-13.67-1.73-21.05c-1.43-1.72-2.84-3.46-4.25-5.19c0.18-0.3,0.37-0.6,0.55-0.89c2.19,1.11,4.37,2.21,6.56,3.32
		c0.27-0.15,0.54-0.3,0.81-0.44c-1.76-3.15-3.51-6.3-5.27-9.46c4.73,1.24,7.75,4.52,9.4,8.92c2.11,5.64,3.57,11.55,5.6,17.23
		c0.92,2.56,2.56,4.84,4.07,7.6c2.21-4.78,1.59-9.61,0.02-14.32c-0.97-2.93-2.76-5.55-3.87-8.45c-1.49-3.89-3.16-7.81-3.86-11.88
		c-1.14-6.63-2.79-12.73-8.29-16.94c-0.33-0.26-0.47-0.81-1.18-2.1c3.06,1.05,5.3,1.82,7.49,2.57c1.97-3.58,1.61-6.9-1.45-9.9
		c-2.41-2.37-5.2-4.31-7.82-6.44c0.15-0.41,0.3-0.81,0.44-1.22c2.1,0.55,4.22,1,6.29,1.68c3.15,1.03,4.5,0.1,3.36-3.14
		c-1.46-4.15-3.76-7.98-5.75-11.91c-0.64-1.27-1.45-2.44-2.19-3.66c0.31-0.42,0.61-0.84,0.92-1.26c2.96,1.99,5.92,3.98,8.78,5.91
		c3.92-3.53,7.55-7.43,11.78-10.41c2.87-2.02,6.51-2.91,9.89-4.03c2.56-0.85,5.34-1,7.86-1.95c2.9-1.09,3.36-3.86,0.74-5.46
		c-4.68-2.85-8.33-7.77-14.76-7.35c-2.95,0.19-6.31-3.04-9.02-2.45c-8.94,1.96-15.48-2.94-22.24-7.22
		c-1.77,0.84-3.44,1.63-5.64,2.67c1.41-3.62,2.43-6.24,3.72-9.56c0.92,1.27,1.58,2.93,2.75,3.64c4.97,3.02,9.82,6.77,16.17,4.71
		c1.04-0.34,2.36-0.25,3.42,0.09c3.32,1.08,6.42,1.33,10.04,0.93c2.87-0.31,6.26,3.02,9.21,5.06c2.57,1.78,4.69,4.3,7.33,5.92
		c1.07,0.66,3.7,0.36,4.33-0.52c0.83-1.16,1.1-3.81,0.38-4.97c-2.59-4.16-2.87-8.32-1.54-12.85c0.29-1.01,0.5-2.15,0.37-3.17
		c-1.03-7.92,2.02-13.56,8.77-16.74c3.27-1.54,4.78-3.67,5.44-7.38c1.22-6.92,2.69-13.85,4.77-20.52
		C188.88,85.83,191.39,82.78,196.23,83.35"/>
	<path class="st0" d="M79.54,162.21c2.19,1.65,3.76,3.57,4.54,3.27c1.47-0.56,3.01-2.24,3.47-3.79c0.21-0.73-2.12-3.31-3.13-3.21
		C82.99,158.62,81.71,160.44,79.54,162.21"/>
	<path class="st0" d="M77,154.02c1.94,1.08,3.2,2.32,3.84,2.03c1.03-0.46,2.11-1.85,2.26-2.99c0.09-0.69-1.76-2.49-2.32-2.31
		C79.61,151.11,78.72,152.44,77,154.02"/>
	<path class="st0" d="M79.06,162.1l-0.38-4.53c-0.97,0.39-2.79,0.86-2.76,1.16c0.12,1.33,0.77,2.62,1.23,3.92
		C77.79,162.46,78.42,162.28,79.06,162.1"/>
	<path class="st0" d="M123.14,96.95c6.03-0.54,10,0.46,14.72,3.71c5.9,4.07,7.65,8.8,6.53,16.02c-0.94,6.06-4.27,10.17-8.62,13.81
		c-7.15,5.98-12.68,6.28-20,0.74c-6-4.53-9.15-14.42-7.11-22.23C110.72,101.14,114.87,97.69,123.14,96.95 M122.33,128.46
		c-5.44-7-6.12-12.53-2.42-19.25c1.98-3.6,4.96-5.39,8.86-5.56c3.79-0.17,6.81,2.22,7.37,5.78c0.61,3.92-1.07,6.71-4.85,8.03
		c-0.84,0.29-1.68,0.58-2.55,0.88c0.8,3.3,1.55,6.43,2.33,9.63c4.65-0.86,9.83-8.42,9.41-14.39c-0.46-6.51-6.07-11.89-12.93-12.4
		c-6.7-0.5-11.2,3.53-12.42,11.11C113.8,120.48,116.54,126.61,122.33,128.46"/>
	<path class="st0" d="M83.06,215.77c0.57,4.6,1.73,8.93,5.52,11.99c0.21,0.17,0.37,0.39,0.58,0.55c9.09,6.61,13.59,15.31,12.1,27.18
		c-0.28,2.25,1.31,4.83,2.18,7.19c0.72,1.97,1.84,3.78,2.46,5.78c0.89,2.86,3.09,4.21,5.29,2.37c2.02-1.69,4.09-4,4.88-6.49
		c2.53-7.99,2.33-16-1.68-23.66c-3.19-6.09-6.25-12.24-9.4-18.35c-1.35-2.62-1.97-5.11-0.69-8.1c0.64-1.49,0.17-3.5,0.2-5.28
		c-0.38-0.05-0.77-0.09-1.15-0.14c-0.37,1.09-0.75,2.19-1.12,3.29c-4.6-3.06-2.5-7.92-2.6-12.17l-0.99-0.15
		c-1.51,3.16-3.02,6.32-4.71,9.84l3.62-0.3c0.44,16.35,12.2,28.31,16.69,43.28c-0.35,0.16-0.71,0.31-1.06,0.47
		c-0.54-1.13-1.08-2.27-1.71-3.6c-1.86,5.75-1.31,9.97,1.67,10.08c-0.96,2.23-1.84,4.28-2.92,6.78c-3.01-5.31-3.6-10.18-3.35-15.4
		c0.49-10.34-4.12-17.95-12.29-23.46c-3.49-2.35-6.97-4.72-8.44-9.22c-0.37-1.14-1.43-2.04-2.17-3.05
		C83.66,215.38,83.36,215.57,83.06,215.77"/>
	<path class="st0" d="M101.73,77.75c0.34,1.73,0.68,3.45,1.15,5.86c0.06-0.1-0.5,0.52-0.72,1.26c-0.24,0.81-0.4,1.82-0.14,2.56
		c0.12,0.34,1.35,0.39,2.06,0.36c3.07-0.15,6.14-0.5,9.22-0.56c2.15-0.04,2.46-1,1.72-2.82c-0.2-0.5-0.39-1.02-0.66-1.47
		c-3.79-6.33-7.54-12.68-11.43-18.94c-0.89-1.43-2.27-2.53-3.43-3.78c-0.32,0.24-0.63,0.48-0.95,0.72c0.65,1.72,1.65,3.4,1.85,5.18
		c0.25,2.23-0.39,4.54-0.23,6.79c0.12,1.67,0.9,3.3,1.38,4.94L101.73,77.75z"/>
	<path class="st0" d="M82.84,270.95c-3.71,0.23-6.72-2.99-7.03-7.54c-0.24-3.45,1.82-5.78,5.31-5.99c3.6-0.22,6.49,2.44,6.77,6.24
		C88.17,267.54,85.95,270.75,82.84,270.95 M82.5,267.8c2.51-1.98,3.04-3.95,1.09-5.71c-0.77-0.7-3.17-0.84-3.62-0.23
		C77.4,265.25,81.67,265.47,82.5,267.8"/>
	<path class="st0" d="M85.83,246.44c-1.07,1.51-3.03,3-3.02,4.52c0.01,3.12,2.37,4.56,5.3,4.52c2.78-0.03,3.87-1.98,3.8-4.52
		C91.8,247.43,89.25,247.13,85.83,246.44"/>
	<path class="st0" d="M185.53,85.6c-2.84,1.73-5.94,3.45-6.3,7.42c-0.12,1.29,1.73,2.78,3.28,5.08c1.8-4.88,3.04-8.25,4.29-11.63
		L185.53,85.6z"/>
	<path class="st0" d="M157.58,136.29c-2.04,1.72-4.07,3.45-6.37,5.39c2.9,1.37,5.14,0.43,6.82-1.69c0.69-0.86,0.54-2.46,0.77-3.73
		C158.39,136.27,157.98,136.28,157.58,136.29"/>
	<path class="st0" d="M77.03,257.69c0.46-2.97,0.77-4.93,1.08-6.9c-1.04,0.12-2.53-0.18-3.03,0.42
		C73.46,253.16,74.1,255.05,77.03,257.69"/>
	<path class="st0" d="M189.29,125.4c-2.85-2.39-5.96-3.43-9.19-1.17c-3.29,2.29-5.34,5.46-4.54,9.91c0.38,2.11,0.51,4.5,1.59,6.19
		c0.85,1.34,3.24,2.73,4.46,2.36c1.23-0.37,2.91-3.18,2.58-4.39c-1.01-3.69-0.21-5.64,2.99-7.5c1.25-0.73,1.34-3.63,1.97-5.53
		C189.15,125.28,189.29,125.4,189.29,125.4"/>
</g>
</svg>
