<svg width="723" height="579" viewBox="0 0 723 579" fill="none" xmlns="http://www.w3.org/2000/svg">
<path d="M158.682 119.463L278.894 29.3418L361.285 127.471" stroke="#F9F0E2" stroke-width="9" stroke-linecap="round" stroke-linejoin="round"/>
<path opacity="0.48" d="M616.828 578.493C619.877 480.524 622.884 364.055 625.934 266.085C654.297 209.776 688.428 188.738 722.528 89.2227C722.528 243.651 722.528 424.544 722.528 578.983C691.115 578.823 648.24 578.663 616.828 578.503V578.493Z" fill="#F2F2F2"/>
<path d="M58.8592 428.779L77.4123 421.507C79.1823 420.814 80.1526 418.906 79.6728 417.072L77.6682 409.395C77.1777 407.518 78.1907 405.577 80.014 404.927L93.0119 400.214C94.9098 399.531 96.9997 400.459 97.7568 402.336L118.645 453.954C119.434 455.895 118.474 458.102 116.513 458.859L75.3118 474.704C73.3391 475.461 71.132 474.448 70.4389 472.454L56.6946 433.514C56.0229 431.605 56.9825 429.515 58.8592 428.779Z" fill="#9C2818"/>
<path d="M673.346 479.1L676.106 480.129L675.809 480.905L673.111 479.662L673.346 479.1ZM681.425 472.692L679.158 473.602L679.119 477.01L681.363 477.996L681.352 478.98L673.007 475.198L681.437 471.709L681.425 472.692ZM678.283 476.652L678.314 473.94L675.095 475.247L678.283 476.652ZM672.577 477.113L671.809 477.104L671.854 473.265L672.622 473.274L672.577 477.113ZM681.447 470.796L672.7 470.693L672.71 469.83L677.054 469.88C676.852 469.722 676.365 469.272 676.374 468.444C676.381 467.856 676.628 467.319 677.075 467.024C677.45 466.777 677.858 466.746 678.41 466.752L681.494 466.788L681.484 467.652L678.424 467.616C678.124 467.613 677.776 467.633 677.51 467.834C677.292 467.999 677.145 468.261 677.14 468.645C677.137 468.945 677.217 469.27 677.514 469.526C677.906 469.866 678.494 469.897 678.854 469.901L681.457 469.932L681.447 470.796ZM676.544 464.237L679.447 464.271C679.795 464.275 680.203 464.28 680.518 464.044C680.688 463.914 680.907 463.652 680.912 463.172C680.918 462.692 680.705 462.426 680.539 462.292C680.23 462.048 679.822 462.043 679.474 462.039L676.57 462.005L676.58 461.141L679.58 461.177C680.192 461.184 680.647 461.249 681.074 461.65C681.537 462.1 681.686 462.689 681.68 463.181C681.675 463.673 681.512 464.259 681.039 464.698C680.602 465.089 680.145 465.143 679.533 465.136L676.534 465.101L676.544 464.237ZM676.599 459.512L676.609 458.648L681.589 458.706L681.579 459.57L676.599 459.512ZM674.713 459.67C674.377 459.666 674.104 459.387 674.108 459.051C674.112 458.715 674.391 458.442 674.727 458.446C675.063 458.45 675.336 458.729 675.332 459.065C675.328 459.401 675.049 459.674 674.713 459.67ZM681.608 457.074L676.628 457.016L676.638 456.152L677.166 456.158C676.761 455.877 676.527 455.443 676.533 454.915C676.543 454.015 677.183 453.662 677.353 453.568C676.602 453.079 676.562 452.395 676.566 452.059C676.583 450.583 677.821 450.453 678.529 450.462L681.685 450.498L681.675 451.362L678.651 451.327C678.087 451.32 677.342 451.384 677.333 452.2C677.321 453.196 678.28 453.315 678.879 453.322L681.651 453.354L681.641 454.218L678.689 454.184C678.341 454.18 677.31 454.156 677.299 455.068C677.287 456.051 678.306 456.171 678.906 456.178L681.618 456.21L681.608 457.074ZM677.477 444.994L676.769 444.986L676.779 444.122L681.759 444.18L681.748 445.044L681.053 445.036C681.421 445.328 681.883 445.874 681.873 446.75C681.858 448.01 680.956 449.163 679.204 449.143C677.489 449.122 676.614 447.96 676.629 446.688C676.64 445.728 677.174 445.219 677.477 444.994ZM677.398 446.601C677.388 447.453 678.003 448.24 679.215 448.255C680.283 448.267 681.094 447.677 681.106 446.645C681.118 445.589 680.249 444.978 679.265 444.967C677.981 444.952 677.407 445.833 677.398 446.601ZM681.778 442.544L676.798 442.486L676.808 441.622L677.384 441.628C677.182 441.47 676.695 441.02 676.705 440.192C676.712 439.604 676.958 439.067 677.406 438.772C677.78 438.525 678.189 438.494 678.741 438.5L681.825 438.536L681.814 439.4L678.755 439.364C678.455 439.361 678.106 439.381 677.84 439.582C677.622 439.747 677.475 440.009 677.471 440.393C677.467 440.693 677.547 441.018 677.844 441.274C678.236 441.614 678.824 441.645 679.184 441.649L681.788 441.68L681.778 442.544ZM676.874 435.985L679.778 436.019C680.126 436.023 680.534 436.028 680.849 435.792C681.018 435.662 681.237 435.4 681.243 434.92C681.248 434.44 681.036 434.174 680.869 434.04C680.56 433.796 680.152 433.791 679.804 433.787L676.9 433.753L676.91 432.889L679.91 432.925C680.522 432.932 680.977 432.997 681.405 433.398C681.867 433.848 682.017 434.437 682.011 434.929C682.005 435.421 681.842 436.007 681.369 436.446C680.932 436.837 680.476 436.891 679.864 436.884L676.864 436.849L676.874 435.985ZM675.107 423.937L675.567 424.651C675.349 424.756 675.107 424.933 674.961 425.112C674.839 425.266 674.68 425.552 674.675 426.008C674.665 426.8 675.151 427.358 675.895 427.367C676.207 427.37 676.388 427.288 676.594 427.075C676.837 426.838 676.973 426.539 677.108 426.241L677.453 425.477C677.662 425.011 677.883 424.582 678.223 424.25C678.636 423.846 679.106 423.684 679.682 423.691C681.158 423.708 682.129 424.811 682.112 426.251C682.106 426.779 681.99 427.438 681.444 427.984C681.055 428.375 680.501 428.609 680.019 428.711L679.789 427.844C680.21 427.789 680.572 427.601 680.815 427.376C681.167 427.032 681.268 426.637 681.272 426.229C681.285 425.138 680.511 424.612 679.707 424.603C679.347 424.599 679.034 424.703 678.767 424.988C678.548 425.213 678.401 425.524 678.204 425.942L677.859 426.658C677.712 426.968 677.539 427.362 677.187 427.718C676.847 428.062 676.472 428.261 675.872 428.254C674.636 428.24 673.82 427.282 673.835 425.986C673.841 425.494 673.941 425.1 674.21 424.707C674.43 424.385 674.757 424.113 675.107 423.937ZM677.847 420.506L677.837 421.37L682.025 421.419L682.015 422.283L677.827 422.234L677.821 422.762L677.029 422.753L677.035 422.225L675.235 422.204L675.245 421.34L677.045 421.361L677.055 420.497L677.847 420.506ZM682.044 419.741L677.065 419.682L677.075 418.818L677.615 418.825C677.484 418.739 676.96 418.361 676.968 417.689C676.971 417.425 677.07 417.138 677.181 416.924L677.956 417.341C677.822 417.531 677.784 417.711 677.782 417.843C677.778 418.191 677.92 418.408 678.086 418.542C678.276 418.689 678.611 418.836 679.427 418.846L682.054 418.877L682.044 419.741ZM680.458 412.768L680.862 412.053C681.137 412.2 681.434 412.419 681.659 412.674C682.062 413.135 682.259 413.701 682.252 414.337C682.238 415.537 681.467 416.788 679.619 416.766C678.131 416.749 676.99 415.823 677.007 414.324C677.019 413.352 677.506 412.745 677.941 412.45C678.389 412.144 679.159 411.973 679.819 412.004L679.773 415.88C680.805 415.88 681.474 415.18 681.484 414.316C681.489 413.908 681.372 413.583 681.136 413.292C680.946 413.062 680.697 412.879 680.458 412.768ZM679.054 415.812L679.088 412.884C678.307 413.019 677.784 413.601 677.775 414.333C677.767 415.065 678.312 415.671 679.054 415.812ZM677.923 406.84L677.215 406.832L677.225 405.968L682.205 406.026L682.195 406.89L681.499 406.882C681.867 407.175 682.329 407.72 682.319 408.596C682.304 409.856 681.402 411.009 679.651 410.989C677.935 410.969 677.06 409.807 677.075 408.535C677.086 407.575 677.62 407.065 677.923 406.84ZM677.844 408.448C677.834 409.3 678.449 410.087 679.661 410.101C680.729 410.113 681.54 409.523 681.552 408.491C681.564 407.435 680.695 406.825 679.711 406.813C678.427 406.798 677.853 407.68 677.844 408.448ZM682.224 404.39L677.244 404.332L677.254 403.468L677.782 403.474C677.378 403.193 677.143 402.759 677.149 402.231C677.159 401.331 677.799 400.978 677.969 400.884C677.218 400.395 677.178 399.711 677.182 399.375C677.199 397.899 678.437 397.769 679.145 397.778L682.301 397.815L682.291 398.679L679.267 398.643C678.703 398.637 677.958 398.7 677.949 399.516C677.937 400.512 678.896 400.631 679.496 400.638L682.267 400.67L682.257 401.534L679.306 401.5C678.958 401.496 677.926 401.472 677.915 402.384C677.904 403.368 678.922 403.487 679.522 403.494L682.234 403.526L682.224 404.39Z" fill="#B84134"/>
<path d="M165.378 344.744C168.982 348.785 176.712 359.363 174.985 364.299C173.801 367.69 170.624 368.255 168.107 371.561C163.437 377.67 165.847 386.851 167.34 392.577C173.065 414.457 195.319 438.928 199.434 443.395C201.61 444.344 205.523 445.965 210.513 447.597C233.555 455.135 244.751 451.499 260.564 460.584C260.98 460.818 264.594 463.527 271.834 468.933C287.178 480.406 297.926 488.691 300.57 490.717C326.737 510.731 337.208 511.914 352.541 524.869C363.544 534.167 377.886 550.225 388.175 578.993C467.431 578.833 546.677 578.674 625.933 578.514C626.114 550.151 626.306 521.777 626.487 493.414L628.876 312.425L634.25 266.106C643.644 250.667 657.623 228.595 667.027 213.155C601.057 155.502 529.062 94.5323 463.092 36.8789C364.536 137.748 263.933 243.896 165.378 344.765V344.744Z" fill="#EEF6EE"/>
<path d="M193.82 290.341L76.333 117.369" stroke="#F9F0E2" stroke-width="9" stroke-miterlimit="10" stroke-linecap="round"/>
<path d="M234.387 241.576L126.939 83.0566L4.99988 162.316" stroke="#F9F0E2" stroke-width="9" stroke-linecap="round" stroke-linejoin="round"/>
<path d="M369.108 289.761L369.218 293.191L372.514 289.652L373.714 289.614L370.091 293.463L374.089 297.61L372.866 297.649L369.474 294.083L369.254 294.318L369.364 297.761L368.476 297.789L368.22 289.789L369.108 289.761ZM378.251 293.203L378.228 292.495L379.092 292.467L379.251 297.445L378.387 297.472L378.365 296.777C378.089 297.158 377.564 297.643 376.689 297.671C375.43 297.711 374.238 296.861 374.182 295.109C374.127 293.394 375.25 292.47 376.521 292.429C377.481 292.399 378.014 292.91 378.251 293.203ZM376.642 293.194C375.79 293.221 375.031 293.87 375.069 295.081C375.103 296.149 375.729 296.933 376.76 296.9C377.816 296.866 378.388 295.972 378.356 294.988C378.315 293.705 377.41 293.169 376.642 293.194ZM380.887 297.393L380.607 288.649L381.471 288.621L381.609 292.963C381.759 292.754 382.187 292.248 383.015 292.222C383.602 292.203 384.15 292.426 384.464 292.86C384.727 293.224 384.776 293.63 384.794 294.182L384.893 297.265L384.029 297.292L383.931 294.234C383.922 293.934 383.887 293.587 383.674 293.329C383.499 293.119 383.231 292.983 382.847 292.996C382.547 293.005 382.226 293.1 381.984 293.407C381.661 293.814 381.655 294.402 381.667 294.762L381.75 297.365L380.887 297.393ZM390.198 292.821L390.175 292.113L391.039 292.086L391.198 297.063L390.334 297.091L390.312 296.395C390.036 296.776 389.511 297.261 388.636 297.289C387.377 297.329 386.185 296.479 386.129 294.728C386.074 293.013 387.197 292.088 388.468 292.048C389.428 292.017 389.961 292.528 390.198 292.821ZM388.589 292.812C387.737 292.839 386.978 293.488 387.016 294.699C387.051 295.767 387.676 296.551 388.707 296.518C389.763 296.485 390.335 295.59 390.303 294.606C390.262 293.323 389.357 292.788 388.589 292.812ZM392.554 288.267L393.418 288.24L393.697 296.983L392.834 297.011L392.554 288.267ZM396.033 291.926L396.126 294.829C396.137 295.176 396.15 295.584 396.4 295.888C396.537 296.052 396.808 296.26 397.287 296.244C397.767 296.229 398.024 296.005 398.151 295.832C398.381 295.513 398.368 295.105 398.357 294.757L398.264 291.855L399.127 291.827L399.223 294.826C399.243 295.437 399.197 295.895 398.815 296.339C398.386 296.821 397.804 296.996 397.312 297.012C396.82 297.028 396.228 296.89 395.769 296.437C395.359 296.018 395.285 295.564 395.265 294.952L395.169 291.954L396.033 291.926ZM402.315 288.7L401.408 291.502L400.619 291.239L401.744 288.49L402.315 288.7ZM404.782 291.647L404.875 294.549C404.886 294.897 404.899 295.305 405.149 295.609C405.286 295.773 405.557 295.98 406.037 295.965C406.517 295.949 406.774 295.725 406.9 295.553C407.13 295.233 407.117 294.826 407.106 294.478L407.013 291.575L407.877 291.548L407.973 294.546C407.992 295.158 407.947 295.615 407.565 296.06C407.136 296.542 406.553 296.717 406.061 296.732C405.57 296.748 404.977 296.611 404.518 296.157C404.109 295.738 404.034 295.284 404.015 294.673L403.919 291.674L404.782 291.647ZM412.424 288.377L413.708 288.336C414.248 288.319 415.052 288.329 415.665 288.717C416.143 289.014 416.57 289.613 416.597 290.465C416.636 291.688 415.862 292.613 414.653 292.736L417.31 296.229L416.23 296.263L413.684 292.839L413.456 292.846L413.568 296.348L412.68 296.377L412.424 288.377ZM413.339 289.188L413.43 292.055L413.994 292.037C415.098 292.001 415.74 291.452 415.711 290.517C415.696 290.073 415.55 289.634 415.037 289.362C414.671 289.169 414.262 289.159 413.879 289.171L413.339 289.188ZM421.891 294.414L422.623 294.786C422.488 295.067 422.282 295.374 422.037 295.61C421.595 296.032 421.037 296.254 420.402 296.274C419.202 296.312 417.919 295.597 417.86 293.75C417.812 292.263 418.687 291.082 420.186 291.034C421.158 291.003 421.785 291.463 422.099 291.886C422.425 292.319 422.629 293.081 422.626 293.742L418.752 293.866C418.797 294.897 419.526 295.534 420.389 295.506C420.797 295.493 421.117 295.363 421.397 295.114C421.619 294.915 421.791 294.657 421.891 294.414ZM418.789 293.144L421.716 293.05C421.547 292.275 420.943 291.779 420.211 291.802C419.479 291.825 418.897 292.396 418.789 293.144ZM427.702 291.623L427.68 290.915L428.543 290.887L428.698 295.745C428.716 296.285 428.74 297.052 428.281 297.715C427.925 298.231 427.255 298.672 426.32 298.702C425.468 298.73 424.87 298.412 424.523 298.087C424.177 297.762 423.848 297.233 423.824 296.501L424.676 296.474C424.689 296.893 424.869 297.26 425.092 297.493C425.465 297.877 425.923 297.947 426.307 297.934C426.919 297.915 427.332 297.685 427.604 297.197C427.843 296.781 427.853 296.336 427.84 295.916L427.817 295.197C427.541 295.578 427.016 296.063 426.14 296.091C425.409 296.114 424.812 295.845 424.416 295.473C424.069 295.148 423.665 294.537 423.633 293.529C423.602 292.558 423.943 291.947 424.291 291.575C424.698 291.154 425.301 290.871 425.973 290.849C426.704 290.826 427.29 291.119 427.702 291.623ZM426.093 291.614C425.566 291.631 425.213 291.87 424.981 292.118C424.575 292.563 424.508 293.093 424.521 293.501C424.535 293.933 424.637 294.518 425.131 294.946C425.415 295.189 425.756 295.335 426.212 295.32C426.667 295.305 427.023 295.15 427.29 294.865C427.615 294.531 427.826 293.996 427.807 293.408C427.789 292.82 427.556 292.312 427.235 292.022C426.95 291.755 426.537 291.6 426.093 291.614ZM430.179 290.835L431.042 290.807L431.201 295.785L430.338 295.813L430.179 290.835ZM429.939 288.958C429.928 288.622 430.195 288.337 430.531 288.327C430.867 288.316 431.151 288.583 431.162 288.919C431.173 289.255 430.906 289.539 430.57 289.55C430.234 289.561 429.95 289.294 429.939 288.958ZM435.164 295.802C433.653 295.851 432.49 294.783 432.442 293.272C432.394 291.761 433.473 290.61 434.997 290.561C436.52 290.512 437.671 291.592 437.719 293.103C437.768 294.615 436.675 295.754 435.164 295.802ZM435.021 291.329C434.11 291.358 433.291 292.032 433.329 293.244C433.369 294.467 434.252 295.063 435.14 295.035C436.039 295.006 436.87 294.343 436.832 293.132C436.793 291.908 435.933 291.3 435.021 291.329ZM439.122 295.532L438.963 290.554L439.827 290.527L439.845 291.103C439.995 290.894 440.423 290.388 441.25 290.361C441.838 290.342 442.386 290.565 442.7 290.999C442.963 291.363 443.012 291.77 443.03 292.321L443.128 295.404L442.265 295.431L442.167 292.373C442.158 292.073 442.122 291.726 441.91 291.469C441.735 291.258 441.467 291.123 441.083 291.135C440.783 291.145 440.462 291.239 440.22 291.547C439.897 291.953 439.891 292.542 439.903 292.902L439.986 295.504L439.122 295.532ZM448.434 290.96L448.411 290.253L449.275 290.225L449.434 295.202L448.57 295.23L448.548 294.534C448.272 294.915 447.747 295.4 446.872 295.428C445.612 295.469 444.421 294.618 444.365 292.867C444.31 291.152 445.433 290.228 446.704 290.187C447.664 290.156 448.196 290.668 448.434 290.96ZM446.825 290.952C445.973 290.979 445.214 291.627 445.252 292.839C445.286 293.906 445.912 294.691 446.943 294.658C447.999 294.624 448.57 293.729 448.539 292.746C448.498 291.462 447.592 290.927 446.825 290.952ZM450.79 286.407L451.654 286.379L451.933 295.123L451.069 295.15L450.79 286.407ZM456.324 286.974L457.775 286.928C458.579 286.902 459.254 286.977 459.808 287.427C460.412 287.912 460.579 288.615 460.595 289.119C460.631 290.246 459.959 291.384 458.136 291.443L457.356 291.468L457.467 294.946L456.58 294.974L456.324 286.974ZM457.238 287.785L457.329 290.628L458.061 290.605C459.116 290.571 459.735 290.023 459.706 289.099C459.665 287.828 458.474 287.746 457.898 287.764L457.238 287.785ZM465.277 290.422L465.254 289.714L466.118 289.687L466.277 294.664L465.413 294.692L465.391 293.996C465.115 294.377 464.59 294.862 463.715 294.89C462.455 294.93 461.264 294.08 461.208 292.329C461.153 290.614 462.276 289.69 463.547 289.649C464.507 289.618 465.039 290.129 465.277 290.422ZM463.668 290.413C462.816 290.441 462.057 291.089 462.095 292.301C462.129 293.368 462.755 294.152 463.786 294.12C464.842 294.086 465.413 293.191 465.382 292.208C465.341 290.924 464.435 290.389 463.668 290.413ZM467.912 294.612L467.753 289.635L468.617 289.607L468.634 290.147C468.714 290.012 469.069 289.472 469.741 289.451C470.004 289.443 470.295 289.529 470.515 289.63L470.132 290.423C469.936 290.297 469.755 290.267 469.623 290.271C469.275 290.282 469.064 290.433 468.937 290.605C468.799 290.802 468.666 291.142 468.692 291.958L468.776 294.584L467.912 294.612ZM471.182 285.755L472.046 285.727L472.225 291.341L473.989 289.435L475.116 289.399L473.05 291.602L475.659 294.365L474.532 294.401L472.468 292.197L472.259 292.42L472.325 294.471L471.461 294.499L471.182 285.755Z" fill="#B84134"/>
<path d="M176.13 455.709L176.128 457.533C175.648 457.785 175.012 458 174.148 458C172.744 457.999 171.892 457.518 171.221 456.882C170.297 455.993 169.938 454.997 169.939 453.821C169.94 452.369 170.541 451.325 171.225 450.69C172.03 449.934 173.026 449.635 174.166 449.636C174.73 449.636 175.402 449.733 176.133 450.129L176.132 451.953C175.401 451.113 174.489 451.052 174.201 451.052C172.593 451.051 171.548 452.37 171.547 453.846C171.546 455.622 172.913 456.583 174.257 456.584C175.001 456.584 175.661 456.261 176.13 455.709ZM177.346 457.822L177.35 452.626L178.814 452.627L178.813 453.407C179.042 452.963 179.354 452.747 179.462 452.687C179.69 452.544 179.978 452.46 180.326 452.46C180.578 452.46 180.782 452.52 180.95 452.58L180.757 453.948C180.565 453.816 180.373 453.756 180.073 453.756C179.797 453.756 179.389 453.815 179.101 454.175C178.825 454.523 178.812 454.967 178.812 455.327L178.81 457.823L177.346 457.822ZM185.17 456.159L186.514 456.376C186.357 456.76 185.769 457.996 183.957 457.995C183.117 457.994 182.481 457.754 181.965 457.261C181.389 456.721 181.15 456.049 181.151 455.233C181.151 454.201 181.572 453.565 181.944 453.193C182.556 452.594 183.276 452.462 183.9 452.463C184.956 452.463 185.568 452.884 185.928 453.316C186.479 453.976 186.551 454.792 186.55 455.356L186.55 455.476L182.662 455.474C182.662 455.786 182.746 456.122 182.914 456.35C183.07 456.566 183.393 456.842 183.957 456.843C184.509 456.843 184.93 456.579 185.17 456.159ZM182.711 454.538L185.171 454.539C185.052 453.831 184.476 453.495 183.936 453.495C183.396 453.494 182.831 453.842 182.711 454.538ZM191.787 453.308L191.787 452.636L193.251 452.637L193.247 457.833L191.783 457.832L191.784 457.16C191.255 457.916 190.559 457.999 190.187 457.999C188.591 457.998 187.536 456.749 187.537 455.225C187.538 453.689 188.583 452.466 190.119 452.467C190.515 452.467 191.295 452.54 191.787 453.308ZM190.49 453.763C189.65 453.763 189.05 454.398 189.049 455.226C189.049 456.054 189.648 456.703 190.488 456.703C191.328 456.704 191.929 456.056 191.929 455.228C191.93 454.4 191.33 453.764 190.49 453.763ZM197.118 453.888L196.11 453.887L196.107 457.835L194.643 457.834L194.646 453.886L194.07 453.886L194.071 452.638L194.647 452.638L194.648 450.862L196.112 450.863L196.111 452.639L197.119 452.64L197.118 453.888ZM197.881 452.64L199.345 452.641L199.343 455.581C199.343 455.857 199.367 456.229 199.654 456.494C199.834 456.65 200.122 456.758 200.398 456.758C200.674 456.758 200.962 456.65 201.142 456.495C201.431 456.231 201.455 455.859 201.455 455.583L201.457 452.643L202.921 452.644L202.919 455.824C202.919 456.292 202.858 456.916 202.282 457.419C201.802 457.839 201.033 458.006 200.397 458.006C199.761 458.006 198.994 457.837 198.514 457.417C197.938 456.912 197.879 456.288 197.879 455.82L197.881 452.64ZM204.311 457.841L204.315 452.645L205.779 452.646L205.778 453.426C206.007 452.982 206.319 452.766 206.427 452.706C206.655 452.562 206.943 452.479 207.291 452.479C207.543 452.479 207.747 452.539 207.915 452.599L207.722 453.967C207.53 453.835 207.338 453.775 207.038 453.775C206.762 453.774 206.354 453.834 206.066 454.194C205.789 454.542 205.777 454.986 205.777 455.346L205.775 457.842L204.311 457.841ZM212.135 456.178L213.479 456.395C213.322 456.779 212.733 458.015 210.921 458.013C210.081 458.013 209.446 457.772 208.93 457.28C208.354 456.74 208.115 456.067 208.115 455.251C208.116 454.219 208.537 453.584 208.909 453.212C209.521 452.612 210.241 452.481 210.865 452.481C211.921 452.482 212.533 452.903 212.893 453.335C213.444 453.995 213.516 454.811 213.515 455.375L213.515 455.495L209.627 455.492C209.627 455.804 209.711 456.141 209.879 456.369C210.034 456.585 210.358 456.861 210.922 456.861C211.474 456.862 211.894 456.598 212.135 456.178ZM209.676 454.557L212.136 454.558C212.016 453.85 211.441 453.514 210.901 453.513C210.361 453.513 209.796 453.861 209.676 454.557ZM223.473 455.742L223.472 457.566C222.992 457.818 222.356 458.033 221.492 458.033C220.088 458.032 219.236 457.551 218.565 456.915C217.641 456.026 217.282 455.03 217.283 453.854C217.284 452.402 217.884 451.358 218.569 450.723C219.373 449.967 220.37 449.668 221.51 449.669C222.074 449.669 222.746 449.766 223.477 450.162L223.476 451.986C222.745 451.146 221.833 451.085 221.545 451.085C219.937 451.084 218.892 452.403 218.891 453.879C218.889 455.655 220.257 456.616 221.601 456.617C222.345 456.617 223.005 456.294 223.473 455.742ZM227.406 452.493C228.39 452.494 229.062 452.818 229.505 453.226C230.021 453.695 230.38 454.415 230.38 455.267C230.379 456.107 230.019 456.827 229.502 457.294C229.058 457.702 228.386 458.026 227.402 458.025C226.418 458.024 225.746 457.7 225.302 457.291C224.787 456.823 224.427 456.103 224.428 455.263C224.428 454.411 224.789 453.691 225.305 453.223C225.75 452.816 226.422 452.492 227.406 452.493ZM227.403 456.729C228.255 456.729 228.867 456.058 228.868 455.266C228.868 454.45 228.245 453.789 227.405 453.789C226.565 453.788 225.94 454.448 225.94 455.264C225.939 456.056 226.551 456.728 227.403 456.729ZM234.345 453.914L233.001 453.913L232.998 457.861L231.534 457.86L231.537 453.912L230.985 453.911L230.986 452.663L231.538 452.664L231.539 451.236C231.539 450.756 231.576 449.94 232.224 449.4C232.536 449.136 232.969 448.969 233.509 448.969C233.833 448.969 234.097 449.03 234.348 449.15L234.348 450.482C234.144 450.326 233.94 450.265 233.688 450.265C233.496 450.265 233.304 450.313 233.159 450.529C233.039 450.721 233.003 450.997 233.003 451.429L233.002 452.665L234.346 452.666L234.345 453.914ZM238.329 453.917L236.985 453.916L236.983 457.864L235.519 457.863L235.521 453.915L234.969 453.914L234.97 452.666L235.522 452.667L235.523 451.239C235.524 450.759 235.56 449.943 236.209 449.403C236.521 449.139 236.953 448.972 237.493 448.972C237.817 448.972 238.081 449.032 238.333 449.153L238.332 450.485C238.128 450.328 237.924 450.268 237.672 450.268C237.48 450.268 237.288 450.316 237.144 450.532C237.024 450.724 236.988 451 236.987 451.432L236.986 452.668L238.33 452.669L238.329 453.917ZM242.756 456.2L244.1 456.417C243.943 456.8 243.355 458.036 241.543 458.035C240.703 458.034 240.067 457.794 239.551 457.301C238.975 456.761 238.736 456.089 238.736 455.273C238.737 454.241 239.158 453.605 239.53 453.233C240.142 452.634 240.862 452.502 241.486 452.503C242.542 452.503 243.154 452.924 243.514 453.356C244.065 454.017 244.137 454.833 244.136 455.397L244.136 455.517L240.248 455.514C240.248 455.826 240.332 456.162 240.5 456.39C240.656 456.606 240.979 456.882 241.543 456.883C242.095 456.883 242.516 456.619 242.756 456.2ZM240.297 454.578L242.757 454.58C242.637 453.872 242.062 453.535 241.522 453.535C240.982 453.534 240.417 453.882 240.297 454.578ZM249.025 456.204L250.369 456.421C250.213 456.805 249.624 458.04 247.812 458.039C246.972 458.039 246.336 457.798 245.821 457.306C245.245 456.765 245.005 456.093 245.006 455.277C245.007 454.245 245.427 453.609 245.799 453.238C246.412 452.638 247.132 452.507 247.756 452.507C248.812 452.508 249.424 452.928 249.783 453.361C250.335 454.021 250.406 454.837 250.406 455.401L250.406 455.521L246.518 455.518C246.518 455.83 246.601 456.166 246.769 456.394C246.925 456.611 247.249 456.887 247.813 456.887C248.365 456.888 248.785 456.624 249.025 456.204ZM246.566 454.582L249.026 454.584C248.907 453.876 248.331 453.54 247.791 453.539C247.251 453.539 246.687 453.886 246.566 454.582ZM255.093 453.064L254.372 453.916C254.025 453.591 253.677 453.567 253.521 453.567C253.173 453.567 252.957 453.735 252.956 453.987C252.956 454.119 253.016 454.323 253.424 454.455L253.772 454.563C254.18 454.696 254.792 454.9 255.091 455.308C255.247 455.524 255.355 455.836 255.355 456.172C255.355 456.64 255.198 457.108 254.778 457.492C254.358 457.876 253.854 458.043 253.218 458.043C252.138 458.042 251.526 457.526 251.202 457.178L251.971 456.29C252.259 456.626 252.69 456.891 253.122 456.891C253.53 456.891 253.843 456.687 253.843 456.327C253.843 456.003 253.579 455.871 253.387 455.799L253.051 455.679C252.679 455.547 252.247 455.378 251.936 455.054C251.696 454.802 251.54 454.478 251.54 454.058C251.541 453.554 251.781 453.134 252.081 452.882C252.489 452.558 253.017 452.511 253.437 452.511C253.821 452.511 254.433 452.56 255.093 453.064ZM256.389 457.877L256.395 449.129L257.859 449.13L257.856 453.354C258.133 452.97 258.625 452.515 259.465 452.515C259.921 452.516 260.593 452.648 261.001 453.152C261.36 453.597 261.408 454.113 261.408 454.617L261.405 457.881L259.941 457.88L259.943 455.048C259.943 454.76 259.932 454.304 259.668 454.027C259.44 453.787 259.128 453.763 258.984 453.763C258.6 453.763 258.3 453.894 258.084 454.218C257.868 454.554 257.855 454.926 257.855 455.226L257.853 457.878L256.389 457.877ZM265.257 452.519C266.241 452.52 266.913 452.844 267.357 453.253C267.873 453.721 268.232 454.441 268.231 455.293C268.231 456.133 267.87 456.853 267.354 457.321C266.91 457.728 266.237 458.052 265.253 458.051C264.269 458.051 263.598 457.726 263.154 457.318C262.638 456.849 262.279 456.129 262.279 455.289C262.28 454.437 262.641 453.717 263.157 453.25C263.601 452.842 264.273 452.519 265.257 452.519ZM265.254 456.755C266.106 456.756 266.719 456.084 266.719 455.292C266.72 454.476 266.096 453.816 265.256 453.815C264.416 453.815 263.792 454.474 263.791 455.29C263.791 456.082 264.402 456.755 265.254 456.755ZM270.826 457.215L270.824 460.635L269.36 460.634L269.366 452.69L270.83 452.691L270.829 453.363C271.057 453.039 271.562 452.524 272.522 452.524C272.978 452.525 273.71 452.633 274.297 453.222C274.681 453.606 275.076 454.254 275.076 455.286C275.075 456.462 274.558 457.098 274.258 457.386C273.862 457.757 273.262 458.057 272.494 458.056C272.134 458.056 271.402 457.996 270.826 457.215ZM272.125 453.82C271.741 453.82 271.441 453.928 271.177 454.167C270.852 454.443 270.684 454.803 270.684 455.283C270.683 455.763 270.875 456.159 271.163 456.411C271.355 456.58 271.667 456.76 272.123 456.76C272.603 456.76 272.915 456.569 273.107 456.389C273.419 456.101 273.563 455.669 273.564 455.285C273.564 454.901 273.408 454.469 273.12 454.193C272.857 453.953 272.473 453.82 272.125 453.82Z" fill="#B84134"/>
<path d="M174.042 466.604L174.043 465.896L174.907 465.897L174.904 470.877L174.04 470.876L174.04 470.18C173.752 470.552 173.211 471.02 172.335 471.019C171.075 471.018 169.912 470.129 169.913 468.377C169.914 466.661 171.067 465.774 172.339 465.775C173.299 465.776 173.815 466.304 174.042 466.604ZM172.435 466.543C171.583 466.543 170.802 467.166 170.801 468.378C170.801 469.446 171.4 470.25 172.432 470.251C173.488 470.252 174.089 469.376 174.089 468.392C174.09 467.108 173.203 466.544 172.435 466.543ZM178.295 466.691L177.431 466.691L177.428 470.879L176.564 470.878L176.567 466.69L176.039 466.69L176.039 465.898L176.567 465.898L176.569 464.098L177.433 464.099L177.431 465.899L178.295 465.899L178.295 466.691ZM183.662 466.695L182.798 466.694L182.795 470.882L181.931 470.882L181.934 466.694L181.406 466.693L181.407 465.901L181.935 465.902L181.936 464.102L182.8 464.102L182.799 465.902L183.663 465.903L183.662 466.695ZM184.474 470.884L184.48 462.136L185.344 462.136L185.341 466.48C185.497 466.276 185.941 465.785 186.769 465.785C187.357 465.786 187.897 466.026 188.197 466.47C188.448 466.842 188.484 467.25 188.484 467.802L188.482 470.886L187.618 470.886L187.62 467.826C187.62 467.526 187.596 467.178 187.392 466.914C187.224 466.697 186.961 466.553 186.577 466.553C186.277 466.553 185.952 466.637 185.7 466.936C185.364 467.332 185.34 467.92 185.339 468.28L185.338 470.884L184.474 470.884ZM193.69 469.222L194.41 469.618C194.266 469.894 194.05 470.194 193.797 470.422C193.341 470.83 192.777 471.033 192.141 471.033C190.941 471.032 189.681 470.275 189.683 468.427C189.684 466.939 190.597 465.788 192.097 465.789C193.069 465.79 193.68 466.27 193.98 466.702C194.292 467.146 194.471 467.915 194.447 468.575L190.571 468.572C190.582 469.604 191.289 470.264 192.153 470.265C192.561 470.265 192.886 470.145 193.174 469.906C193.402 469.714 193.582 469.462 193.69 469.222ZM190.631 467.852L193.559 467.854C193.416 467.074 192.828 466.557 192.096 466.557C191.364 466.556 190.764 467.108 190.631 467.852ZM199.681 462.89L199.678 466.322L203.089 462.893L204.289 462.893L200.542 466.623L204.403 470.897L203.179 470.897L199.906 467.222L199.678 467.45L199.675 470.894L198.787 470.894L198.793 462.89L199.681 462.89ZM209.765 462.897L209.764 463.737L206.5 463.735L206.499 466.111L209.667 466.113L209.666 466.953L206.498 466.951L206.496 470.059L209.76 470.061L209.759 470.901L205.607 470.898L205.613 462.894L209.765 462.897ZM213.089 470.904L213.091 467.46L210.466 462.898L211.498 462.898L213.536 466.476L215.602 462.901L216.634 462.902L213.979 467.46L213.977 470.904L213.089 470.904ZM220.566 462.905L222.018 462.906C222.822 462.906 223.494 463.003 224.034 463.471C224.621 463.976 224.765 464.684 224.765 465.188C224.764 466.316 224.055 467.431 222.231 467.43L221.451 467.429L221.449 470.909L220.561 470.909L220.566 462.905ZM221.454 463.745L221.452 466.589L222.184 466.59C223.24 466.591 223.876 466.063 223.877 465.139C223.878 463.867 222.69 463.746 222.114 463.746L221.454 463.745ZM225.817 470.912L225.821 465.932L226.685 465.933L226.684 466.473C226.768 466.341 227.141 465.813 227.813 465.814C228.077 465.814 228.365 465.91 228.581 466.018L228.172 466.798C227.98 466.666 227.8 466.63 227.668 466.63C227.32 466.629 227.104 466.773 226.972 466.941C226.828 467.133 226.684 467.469 226.683 468.285L226.681 470.913L225.817 470.912ZM231.403 471.06C229.891 471.059 228.764 469.954 228.765 468.442C228.766 466.93 229.883 465.815 231.407 465.816C232.931 465.817 234.046 466.934 234.045 468.446C234.044 469.958 232.915 471.061 231.403 471.06ZM231.406 466.584C230.494 466.584 229.654 467.231 229.653 468.443C229.652 469.667 230.515 470.292 231.403 470.292C232.303 470.293 233.156 469.658 233.157 468.446C233.158 467.222 232.318 466.585 231.406 466.584ZM235.372 465.939L236.236 465.94L236.23 473.68L235.366 473.679L235.372 465.939ZM235.193 464.055C235.193 463.719 235.469 463.443 235.805 463.443C236.141 463.444 236.417 463.72 236.417 464.056C236.417 464.392 236.14 464.668 235.804 464.667C235.468 464.667 235.193 464.391 235.193 464.055ZM241.561 469.255L242.281 469.652C242.137 469.928 241.921 470.228 241.668 470.455C241.212 470.863 240.648 471.067 240.012 471.066C238.812 471.065 237.553 470.309 237.554 468.461C237.555 466.973 238.468 465.821 239.968 465.822C240.94 465.823 241.551 466.303 241.851 466.736C242.163 467.18 242.342 467.948 242.318 468.608L238.442 468.605C238.453 469.637 239.161 470.298 240.025 470.298C240.433 470.299 240.757 470.179 241.045 469.939C241.273 469.747 241.453 469.495 241.561 469.255ZM238.502 467.885L241.43 467.887C241.287 467.107 240.699 466.591 239.967 466.59C239.235 466.59 238.635 467.141 238.502 467.885ZM247.545 466.308L247.544 467.34C247.088 466.763 246.428 466.595 245.984 466.595C245.06 466.594 244.22 467.241 244.219 468.453C244.218 469.665 245.082 470.302 245.97 470.302C246.486 470.303 247.122 470.075 247.578 469.524L247.578 470.556C247.037 470.951 246.461 471.071 245.993 471.071C244.445 471.069 243.33 469.965 243.331 468.465C243.332 466.941 244.461 465.825 245.997 465.827C246.789 465.827 247.305 466.139 247.545 466.308ZM250.658 466.742L249.794 466.741L249.791 470.929L248.927 470.929L248.93 466.741L248.402 466.74L248.403 465.948L248.931 465.949L248.932 464.149L249.796 464.149L249.795 465.949L250.659 465.95L250.658 466.742Z" fill="#B84134"/>
<path d="M79.3036 28.6354L36.7004 59.4297C35.2066 60.5094 34.8709 62.5958 35.9507 64.0896L47.9374 80.6729C49.0171 82.1667 51.1034 82.5024 52.5973 81.4226L95.2005 50.6283C96.6943 49.5486 97.03 47.4623 95.9502 45.9684L83.9635 29.3852C82.8838 27.8913 80.7975 27.5556 79.3036 28.6354Z" fill="#D9D9D9"/>
<path d="M218.68 70.7237L169.62 4.94531" stroke="#F9F0E2" stroke-width="8" stroke-miterlimit="10" stroke-linecap="round"/>
<path d="M284.462 168.463L216.841 90.3993C215.638 89.0106 213.537 88.86 212.148 90.0629L198.375 101.994C196.986 103.197 196.835 105.298 198.038 106.687L265.66 184.751C266.863 186.139 268.964 186.29 270.352 185.087L284.126 173.156C285.515 171.953 285.665 169.852 284.462 168.463Z" fill="#D9D9D9"/>
<path d="M316.354 131.774L255.114 61.0761C253.926 59.7051 251.852 59.5564 250.481 60.744L236.643 72.7309C235.272 73.9185 235.123 75.9925 236.311 77.3635L297.551 148.061C298.739 149.432 300.813 149.581 302.184 148.393L316.022 136.406C317.393 135.219 317.541 133.145 316.354 131.774Z" fill="#D9D9D9"/>
<path d="M41.5341 168.591L27.9229 176.449C26.3572 177.353 25.8208 179.355 26.7247 180.921L32.1787 190.367C33.0827 191.933 35.0847 192.47 36.6504 191.566L50.2616 183.707C51.8272 182.803 52.3637 180.801 51.4597 179.236L46.0057 169.789C45.1018 168.223 43.0998 167.687 41.5341 168.591Z" fill="#D9D9D9"/>
<path d="M47.997 185.875L34.4781 193.68C32.8869 194.599 32.3418 196.634 33.2604 198.225L38.6611 207.579C39.5798 209.17 41.6144 209.715 43.2056 208.797L56.7244 200.992C58.3156 200.073 58.8608 198.038 57.9421 196.447L52.5414 187.093C51.6228 185.502 49.5881 184.957 47.997 185.875Z" fill="#D9D9D9"/>
<path d="M73.7129 224.5L20.518 257.624C18.9683 258.589 18.4943 260.627 19.4593 262.177L53.6145 317.028C54.5794 318.578 56.6179 319.052 58.1676 318.087L111.363 284.963C112.912 283.998 113.386 281.96 112.421 280.41L78.266 225.559C77.3011 224.009 75.2625 223.535 73.7129 224.5Z" fill="#D9D9D9"/>
<path d="M150.676 478.306C150.548 478.253 150.409 478.199 150.281 478.146C150.228 478.423 150.196 478.722 150.1 478.978C149.396 480.812 148.373 482.39 146.837 483.584C145.078 484.949 143.223 485.909 140.887 485.109C140.354 484.928 139.747 484.949 139.181 484.906C137.06 484.768 135.098 484.032 133.424 482.699C131.046 480.812 129.596 478.306 129.702 475.096C129.841 471.183 130.31 467.366 132.613 464.125C133.519 462.845 134.383 461.534 135.236 460.211C136.59 458.121 136.548 456.853 135.066 454.795C134.532 454.059 133.978 453.323 133.477 452.566C131.024 448.824 130.289 444.878 132.187 440.763C132.624 439.803 132.816 439.057 131.973 438.235C131.568 437.841 131.6 437.457 132.091 437.073C132.848 436.487 132.805 435.57 131.984 435.079C131.408 434.738 131.174 434.472 131.398 433.757C131.472 433.523 131.078 432.936 130.779 432.787C130.342 432.563 130.075 432.872 130.075 433.427C130.075 433.576 129.692 433.864 129.649 433.832C128.956 433.352 128.145 432.936 127.666 432.264C127.41 431.912 127.548 431.006 127.815 430.548C128.487 429.385 129.542 428.81 130.928 428.927C133.466 429.151 135.513 430.516 137.486 432.072C138.339 432.744 139.192 433.427 140.066 434.066C140.301 434.237 140.696 434.429 140.898 434.344C141.986 433.853 143.244 433.512 144.054 432.691C145.824 430.9 147.168 428.735 147.84 426.197C148.703 422.956 150.708 420.823 153.544 419.384C155.719 418.285 157.98 417.518 160.39 417.155C160.987 417.07 161.69 416.857 162.096 416.43C162.479 416.025 162.543 415.279 162.831 414.436C162.917 415.129 162.991 415.63 163.045 416.121C164.154 415.694 163.898 414.596 164.164 413.722C164.239 414.159 164.313 414.586 164.388 415.023C164.452 415.044 164.527 415.065 164.591 415.087C165.017 414.33 165.444 413.583 165.87 412.826C165.913 412.826 165.956 412.848 165.998 412.848C165.838 413.445 165.668 414.042 165.508 414.639C165.902 414.703 166.329 414.767 166.755 414.841C165.966 415.14 165.039 414.788 164.527 415.726C164.815 415.94 165.06 416.121 165.305 416.302C165.294 416.409 165.284 416.505 165.273 416.601C164.004 415.353 163.514 416.878 162.65 417.027C163.919 417.358 165.188 417.528 166.403 417.923C168.195 418.499 169.943 419.256 172.012 418.36C171.415 419.565 170.402 419.096 169.442 419.554C170.327 419.917 170.978 420.258 171.66 420.429C172.342 420.61 173.068 420.621 173.771 420.706C173.771 420.781 173.771 420.855 173.771 420.93C173.014 420.94 172.247 420.951 171.34 420.973C171.639 421.26 171.82 421.58 172.065 421.644C173.441 422.049 174.838 422.391 176.224 422.753C176.234 422.785 176.245 422.817 176.256 422.849C175.232 422.817 174.219 422.774 173.196 422.742C173.164 422.828 173.132 422.913 173.1 422.998C173.633 423.254 174.144 423.553 174.699 423.755C175.307 423.979 175.946 424.097 176.576 424.257C176.565 424.331 176.554 424.406 176.544 424.481C175.84 424.363 175.125 424.257 174.486 424.15C174.966 425.003 175.424 425.835 175.883 426.645C175.819 426.677 175.765 426.72 175.701 426.752C174.902 425.707 174.102 424.651 173.302 423.606C173.259 423.638 173.206 423.681 173.164 423.723C173.217 424.171 173.27 424.619 173.323 425.067C172.62 423.83 172.513 422.305 170.956 421.516L171.617 423.937L171.351 424.022C171.02 422.636 170.615 421.292 169.528 420.301L169.837 421.431C168.813 419 166.734 418.541 164.665 418.062C164.623 418.147 164.58 418.243 164.537 418.328C165.572 418.84 166.617 419.352 167.662 419.864C167.662 419.917 167.651 419.96 167.64 420.013L166.286 419.778C166.243 419.874 166.211 419.96 166.179 420.055C167.011 420.557 167.853 421.047 168.696 421.548L168.664 421.666L167.267 421.196C167.214 421.271 167.171 421.356 167.118 421.431C167.917 422.06 168.728 422.679 169.528 423.308C169.517 423.329 169.496 423.35 169.485 423.372C169.058 423.18 168.632 422.977 168.205 422.785C168.483 423.574 169.037 424.15 169.325 424.854C169.602 425.515 169.624 426.293 169.762 427.018C169.709 427.04 169.666 427.05 169.613 427.061C169.357 426.41 169.09 425.771 168.749 424.886C168.621 425.398 168.557 425.653 168.483 425.909C168.451 425.877 168.408 425.845 168.365 425.813C168.365 425.163 168.355 424.512 168.344 423.862C168.248 423.862 168.163 423.851 168.067 423.851C167.949 424.214 167.843 424.576 167.726 424.939C167.651 424.939 167.576 424.939 167.502 424.939C167.555 423.691 167.608 422.444 166.627 421.41C166.531 421.889 166.467 422.263 166.393 422.636C165.924 420.13 165.913 420.109 165.134 419.725C165.113 420.226 165.081 420.749 165.049 421.282C164.932 421.282 164.815 421.282 164.697 421.282C164.655 420.994 164.644 420.685 164.559 420.407C164.324 419.65 164.303 418.723 163.364 418.435C161.029 417.72 158.779 417.966 156.562 419.128C157.958 419.49 159.355 419.853 160.933 420.269C160.262 420.269 159.76 420.269 159.259 420.269C159.76 420.855 160.219 421.42 160.688 421.975C160.656 421.996 160.624 422.017 160.592 422.039C159.665 421.346 158.748 420.653 157.82 419.96C157.788 420.024 157.745 420.077 157.713 420.141C157.937 420.599 158.161 421.047 158.385 421.506L158.118 421.634C158.033 421.452 157.958 421.26 157.863 421.09C157.201 419.896 156.06 419.149 155.122 419.544C153.512 420.215 151.998 421.09 150.921 422.615C151.465 422.753 151.955 422.902 152.456 422.988C152.947 423.073 153.459 423.116 153.949 423.105C154.418 423.105 154.888 423.009 155.357 422.945C155.357 422.998 155.367 423.041 155.378 423.084L153.757 423.532C156.029 425.056 156.359 425.43 156.274 426.272C155.805 425.76 155.303 425.206 154.653 424.491C154.738 425.227 154.792 425.685 154.856 426.144C154.781 426.144 154.706 426.165 154.621 426.176C154.312 424.928 153.843 423.83 152.499 423.574C152.755 424.225 153 424.864 153.246 425.504C153.16 425.536 153.075 425.568 153 425.6C152.83 424.662 151.966 423.457 151.348 423.425C150.367 423.382 149.833 424.022 149.482 424.886C148.607 427.04 147.712 429.183 146.837 431.347C146.485 432.232 146.784 432.936 147.498 433.512C149.13 434.813 150.228 434.855 151.827 433.608C152.35 433.203 152.787 432.68 153.246 432.19C154.163 431.198 155.016 430.164 155.965 429.215C157.82 427.338 160.688 427.541 162.309 429.631C162.703 430.142 163.077 430.729 162.479 431.358C160.358 429.983 159.75 430.174 159.696 432.243C159.163 432.264 158.545 432.104 158.118 432.339C157.223 432.819 158.246 433.299 158.193 433.778C157.926 434.28 157.596 434.781 157.553 435.314C157.436 436.753 157.425 438.203 157.383 439.654C157.351 440.677 157.735 441.434 158.545 442.095C159.974 443.258 160.464 445.145 159.675 446.574C159.067 447.661 158.406 448.941 157.436 449.527C155.933 450.423 155.805 451.969 155.282 453.302C154.952 454.144 154.568 454.667 153.821 455.019C152.979 455.424 152.147 455.84 151.358 456.341C149.29 457.663 148.81 459.081 149.268 461.608C149.567 463.25 149.61 464.935 149.855 466.588C149.983 467.441 150.175 468.336 150.58 469.072C151.401 470.586 152.371 472.026 153.299 473.476C154.269 474.99 154.28 476.621 153.789 478.199C153.597 478.796 152.883 479.383 152.286 479.596C151.977 479.703 151.38 478.967 150.921 478.615C150.825 478.551 150.761 478.434 150.686 478.349M157.329 443.556C156.807 442.906 156.156 442.49 155.367 442.735C154.664 442.948 153.907 444.367 154.024 445.198C154.184 446.318 154.418 447.427 154.653 448.546C154.781 449.154 155.069 449.271 155.634 448.973C156.807 448.365 157.489 447.331 157.948 446.126C158.353 445.092 158.076 444.228 157.287 443.535L157.329 443.556ZM157.127 433.618C156.999 433.149 156.914 432.819 156.818 432.488C156.636 431.902 156.988 431.198 157.564 431.166C158.182 431.145 158.854 431.358 158.961 430.356C158.971 430.206 159.345 430.11 159.579 429.982C158.182 429.588 156.53 430.185 155.869 431.411C155.08 432.893 154.29 434.354 153.022 435.452C152.552 435.868 152.019 436.21 151.433 436.647C151.486 436.775 151.593 437.031 151.699 437.265C149.908 436.05 147.882 435.516 145.856 435.197C143.766 434.877 141.751 435.282 140.077 436.881C140.152 436.625 140.216 436.38 140.301 436.092C138.552 435.676 137.443 434.28 136.196 433.128C134.98 432.008 133.733 431.027 132.112 430.697C131.078 430.484 130.481 430.612 129.798 431.198C130.566 431.742 131.344 432.254 132.059 432.84C132.272 433.011 132.325 433.395 132.453 433.682C132.539 433.874 132.602 434.12 132.752 434.237C133.946 435.165 133.914 436.316 133.434 437.564C133.605 437.766 133.765 437.958 133.914 438.161C134.607 439.11 134.586 439.91 134.127 440.954C133.722 441.871 133.519 442.884 133.178 443.972C133.861 443.897 134.351 443.844 134.842 443.791C134.874 443.865 134.906 443.94 134.927 444.025C133.957 444.441 133.029 444.91 133.146 446.275C133.541 446.318 133.935 446.35 134.415 446.392C133.104 447.939 133.082 447.981 133.647 449.069C134.17 448.813 134.66 448.493 135.194 448.322C135.481 448.226 135.844 448.376 136.175 448.418C136.175 448.525 136.196 448.632 136.196 448.738C135.972 448.802 135.737 448.856 135.524 448.93C134.49 449.271 134.181 450.338 134.863 451.244C135.258 451.766 135.684 452.278 136.1 452.79C138.574 455.797 138.542 457.482 137.454 460.478C138.104 460.542 138.776 460.606 139.448 460.67C139.491 460.808 139.523 460.947 139.565 461.086C136.921 461.15 135.545 463.176 133.914 464.647C135.108 464.722 136.324 464.807 137.539 464.882C137.55 465.031 137.571 465.18 137.582 465.319C136.91 465.457 136.238 465.585 135.567 465.724C133.775 466.087 132.24 466.79 131.643 468.795C131.622 468.88 131.611 468.976 131.6 469.072C131.6 469.093 131.622 469.125 131.611 469.104C132.261 468.869 132.912 468.624 133.562 468.379C133.615 468.464 133.669 468.56 133.733 468.646C133.306 469.125 132.954 469.733 132.443 470.042C131.376 470.693 131.003 471.631 131.056 472.729C132.336 472.463 133.647 472.196 134.959 471.93C135.002 472.068 135.044 472.207 135.087 472.346C134.266 472.676 133.456 473.017 132.634 473.337C131.632 473.721 131.131 474.713 131.43 475.608C132.24 475.32 133.061 475.033 133.871 474.755C133.914 474.851 133.957 474.937 133.999 475.033C133.594 475.363 133.178 475.683 132.784 476.035C131.835 476.877 131.781 477.517 132.464 478.615C133.69 480.577 135.417 481.803 137.529 482.496C139.459 483.126 141.41 483.52 143.436 483.413C145.558 483.296 146.773 481.889 147.573 480.14C147.893 479.447 147.573 478.413 147.52 477.538C147.498 477.208 147.392 476.877 147.488 476.44C147.818 476.813 148.149 477.186 148.479 477.56C149.29 475.64 148.906 474.244 147.189 472.804C146.784 472.473 146.389 472.132 145.995 471.791C146.027 471.716 146.059 471.642 146.08 471.567C146.635 471.727 147.178 471.887 147.722 472.047C147.776 472.004 147.829 471.951 147.893 471.908C147.36 471.258 146.816 470.618 146.283 469.968C147.424 470.053 148.255 470.671 148.821 471.61C149.546 472.815 150.132 474.105 150.836 475.32C151.156 475.864 151.625 476.323 152.094 476.888C152.393 475.694 152.051 474.617 151.486 473.604C151.134 472.975 150.623 472.452 150.239 471.834C149.727 471.002 149.183 470.181 148.852 469.275C148.309 467.803 147.669 466.47 146.229 465.745C146.144 465.703 146.091 465.575 145.867 465.319C146.613 465.425 147.157 465.511 147.69 465.585C147.989 464.679 147.765 463.933 146.933 463.378C146.283 462.941 145.558 462.61 144.865 462.237C144.886 462.141 144.897 462.035 144.918 461.939C145.419 461.971 145.931 461.992 146.432 462.056C147.2 462.163 147.466 461.885 147.072 461.192C146.56 460.307 145.867 459.518 145.248 458.708C145.046 458.441 144.811 458.207 144.587 457.962C144.641 457.855 144.694 457.748 144.747 457.631C145.515 457.962 146.272 458.292 147.008 458.612C147.754 457.631 148.426 456.586 149.268 455.722C149.844 455.136 150.633 454.773 151.369 454.379C151.923 454.08 152.552 453.92 153.086 453.6C153.704 453.227 153.693 452.577 153.022 452.321C151.827 451.862 150.782 450.892 149.322 451.265C148.65 451.436 147.744 450.839 147.146 451.084C145.185 451.916 143.468 451.073 141.74 450.38C141.367 450.647 141.026 450.903 140.557 451.233C140.727 450.348 140.845 449.698 141.005 448.888C141.271 449.143 141.495 449.495 141.794 449.602C143.063 450.082 144.331 450.732 145.696 449.996C145.92 449.879 146.229 449.837 146.485 449.868C147.296 449.975 148.01 449.9 148.831 449.655C149.471 449.463 150.399 450.082 151.156 450.423C151.817 450.722 152.414 451.212 153.086 451.468C153.363 451.575 153.949 451.393 154.056 451.169C154.195 450.871 154.141 450.252 153.928 450.018C153.16 449.175 152.915 448.237 153.032 447.139C153.054 446.894 153.054 446.627 152.979 446.392C152.403 444.622 152.862 443.194 154.28 442.181C154.962 441.69 155.218 441.136 155.207 440.261C155.197 438.619 155.239 436.967 155.431 435.357C155.538 434.504 155.986 433.693 157.127 433.618Z" fill="#B84134"/>
<path d="M133.711 456.629C134.287 456.917 134.724 457.29 134.895 457.183C135.204 456.991 135.492 456.543 135.524 456.17C135.545 455.989 134.895 455.498 134.671 455.562C134.351 455.658 134.138 456.127 133.711 456.629Z" fill="#B84134"/>
<path d="M132.784 454.86C133.275 455.02 133.616 455.255 133.755 455.159C133.968 455.01 134.16 454.647 134.149 454.38C134.149 454.22 133.637 453.879 133.52 453.954C133.264 454.082 133.115 454.434 132.795 454.86" fill="#B84134"/>
<path d="M133.605 456.617L133.328 455.594C133.125 455.722 132.72 455.914 132.741 455.978C132.827 456.276 133.029 456.543 133.189 456.82C133.328 456.745 133.467 456.681 133.605 456.617Z" fill="#B84134"/>
<path d="M140.931 439.803C142.285 439.419 143.245 439.483 144.46 440.027C145.985 440.709 146.593 441.722 146.635 443.418C146.678 444.846 146.091 445.934 145.249 446.947C143.863 448.621 142.605 448.93 140.696 447.971C139.129 447.192 137.988 445.049 138.116 443.172C138.254 441.285 139.054 440.315 140.92 439.792M142.072 447.054C140.526 445.678 140.131 444.441 140.696 442.746C140.995 441.839 141.602 441.296 142.487 441.093C143.351 440.891 144.14 441.317 144.428 442.106C144.737 442.98 144.471 443.695 143.66 444.153C143.479 444.26 143.298 444.356 143.117 444.462C143.436 445.188 143.746 445.87 144.066 446.574C145.1 446.179 145.964 444.228 145.612 442.874C145.228 441.402 143.714 440.411 142.125 440.581C140.568 440.752 139.704 441.871 139.747 443.652C139.79 445.582 140.675 446.872 142.082 447.054" fill="#B84134"/>
<path d="M136.804 468.752C137.134 469.786 137.582 470.725 138.584 471.268C138.638 471.3 138.691 471.343 138.744 471.375C141.112 472.505 142.508 474.307 142.679 477.09C142.711 477.613 143.18 478.146 143.489 478.647C143.735 479.063 144.076 479.436 144.3 479.863C144.63 480.481 145.185 480.694 145.611 480.182C146.006 479.713 146.379 479.095 146.454 478.487C146.699 476.547 146.304 474.723 145.057 473.134C144.065 471.876 143.105 470.597 142.125 469.328C141.709 468.784 141.453 468.24 141.623 467.504C141.709 467.131 141.517 466.694 141.442 466.289C141.357 466.289 141.261 466.3 141.176 466.31C141.133 466.577 141.101 466.843 141.058 467.11C139.875 466.609 140.152 465.404 139.949 464.434H139.715C139.501 465.233 139.288 466.022 139.054 466.897L139.875 466.673C140.674 470.405 143.873 472.644 145.547 475.885C145.473 475.939 145.398 475.981 145.323 476.035C145.153 475.8 144.982 475.566 144.78 475.278C144.598 476.674 144.907 477.623 145.59 477.517C145.462 478.071 145.355 478.572 145.206 479.191C144.289 478.103 143.948 477.016 143.788 475.8C143.457 473.412 142.082 471.866 139.971 470.949C139.075 470.554 138.169 470.16 137.646 469.189C137.508 468.944 137.23 468.784 137.017 468.581C136.953 468.635 136.889 468.688 136.836 468.752" fill="#B84134"/>
<path d="M135.204 436.316C135.353 436.7 135.502 437.074 135.715 437.607C135.715 437.585 135.619 437.745 135.609 437.927C135.587 438.118 135.598 438.364 135.683 438.524C135.726 438.598 136.014 438.556 136.174 438.524C136.867 438.364 137.56 438.15 138.264 438.001C138.754 437.905 138.786 437.671 138.541 437.287C138.477 437.18 138.413 437.074 138.328 436.978C137.187 435.687 136.057 434.387 134.905 433.118C134.639 432.83 134.276 432.638 133.956 432.393C133.892 432.457 133.828 432.531 133.764 432.595C133.988 432.958 134.287 433.31 134.404 433.704C134.553 434.205 134.511 434.76 134.639 435.272C134.734 435.645 134.99 435.986 135.161 436.348L135.193 436.316H135.204Z" fill="#B84134"/>
<path d="M139.096 481.41C138.254 481.623 137.433 481.015 137.166 479.981C136.963 479.202 137.337 478.573 138.126 478.381C138.947 478.179 139.714 478.669 139.938 479.522C140.173 480.397 139.8 481.228 139.096 481.41ZM138.883 480.706C139.373 480.141 139.416 479.672 138.883 479.352C138.68 479.224 138.115 479.298 138.04 479.458C137.592 480.343 138.584 480.215 138.872 480.717" fill="#B84134"/>
<path d="M138.744 475.66C138.562 476.055 138.178 476.481 138.242 476.822C138.381 477.537 138.978 477.771 139.65 477.633C140.29 477.505 140.45 477.014 140.332 476.439C140.162 475.639 139.565 475.671 138.744 475.66Z" fill="#B84134"/>
<path d="M154.75 434.545C154.174 435.067 153.534 435.59 153.62 436.518C153.652 436.816 154.131 437.083 154.59 437.541C154.792 436.347 154.931 435.515 155.08 434.694L154.75 434.545Z" fill="#B84134"/>
<path d="M150.505 447.363C150.111 447.843 149.716 448.322 149.279 448.866C150.004 449.058 150.473 448.749 150.772 448.184C150.889 447.96 150.793 447.597 150.793 447.299C150.697 447.32 150.601 447.341 150.516 447.363" fill="#B84134"/>
<path d="M137.207 478.614C137.186 477.91 137.175 477.452 137.164 476.982C136.93 477.057 136.578 477.046 136.492 477.206C136.205 477.718 136.428 478.123 137.218 478.614" fill="#B84134"/>
<path d="M157.307 443.512C156.55 443.085 155.793 442.979 155.153 443.64C154.492 444.301 154.162 445.122 154.535 446.103C154.716 446.572 154.844 447.116 155.164 447.457C155.42 447.724 156.028 447.948 156.284 447.809C156.55 447.67 156.817 446.956 156.689 446.689C156.305 445.89 156.401 445.41 157.051 444.845C157.307 444.621 157.201 443.96 157.265 443.491L157.307 443.512Z" fill="#B84134"/>
<path d="M4.99988 376.499C27.9781 372.98 44.6332 374.814 80.396 369.195C99.2051 366.231 133.56 361.667 152.167 350.503C195.799 324.326 186.65 325.179 240.977 269.712C304.772 204.573 423.768 82.6765 449.337 54.3989C456.641 46.3273 461.439 38.5328 469.586 45.7515C512.983 84.1587 652.739 203.645 720.149 257.46C724.574 260.989 722.527 249.548 722.527 243.886V228.415C722.527 226.442 715.052 220.908 713.56 219.629C629.057 147.293 544.566 74.9567 460.064 2.62074C458.838 1.57579 457.281 1 455.671 1H439.826C433.983 1 430.901 7.90945 434.804 12.2598C437.278 15.0108 443.707 22.1335 446.181 24.8845C447.333 26.1747 354.62 117.17 276.356 200.948C213.083 268.667 160.718 325.861 137.953 335.49C102.724 350.396 5.51169 360.963 5.01054 361.016V376.509L4.99988 376.499Z" fill="#B84134"/>
<path d="M351.994 136.514L352.684 135.812L358.444 138.511L355.631 132.231L361.867 135.027L359.228 129.153L359.917 128.451L363.571 136.752L357.352 133.938L360.156 140.227L351.994 136.514ZM365.277 128.321L364.772 127.825L365.378 127.209L368.93 130.699L368.324 131.316L367.828 130.828C367.891 131.294 367.846 132.007 367.232 132.632C366.349 133.531 364.9 133.738 363.65 132.51C362.427 131.308 362.601 129.864 363.492 128.956C364.165 128.272 364.903 128.274 365.277 128.321ZM364.107 129.426C363.51 130.034 363.408 131.028 364.273 131.877C365.035 132.626 366.029 132.761 366.752 132.025C367.492 131.272 367.288 130.23 366.586 129.54C365.67 128.64 364.646 128.878 364.107 129.426ZM366.525 126.042L367.13 125.425L370.682 128.916L370.077 129.532L366.525 126.042ZM365.055 124.85C364.815 124.614 364.812 124.224 365.047 123.984C365.283 123.744 365.673 123.741 365.913 123.977C366.152 124.212 366.156 124.602 365.92 124.842C365.685 125.082 365.294 125.085 365.055 124.85ZM371.826 127.752L365.587 121.62L366.192 121.004L369.291 124.049C369.254 123.795 369.215 123.133 369.795 122.543C370.207 122.123 370.757 121.906 371.284 122.003C371.726 122.084 372.042 122.345 372.436 122.732L374.635 124.893L374.03 125.509L371.847 123.365C371.633 123.154 371.368 122.928 371.037 122.888C370.765 122.856 370.477 122.944 370.208 123.218C369.998 123.432 369.831 123.722 369.868 124.112C369.915 124.629 370.318 125.058 370.574 125.31L372.432 127.136L371.826 127.752ZM377.096 120.01L377.883 119.774C377.979 120.07 378.041 120.434 378.027 120.774C377.999 121.385 377.749 121.93 377.303 122.384C376.462 123.24 375.04 123.609 373.722 122.313C372.66 121.27 372.478 119.813 373.529 118.743C374.21 118.049 374.982 117.949 375.5 118.038C376.036 118.127 376.71 118.537 377.163 119.016L374.447 121.781C375.191 122.496 376.158 122.453 376.764 121.837C377.05 121.546 377.191 121.231 377.222 120.857C377.245 120.56 377.191 120.255 377.096 120.01ZM373.975 121.234L376.027 119.145C375.37 118.701 374.59 118.759 374.077 119.281C373.564 119.803 373.537 120.618 373.975 121.234ZM375.196 112.903L376.475 115.557L375.723 115.911L374.638 113.146L375.196 112.903ZM383.272 113.724L384.06 113.488C384.156 113.784 384.218 114.149 384.204 114.488C384.175 115.1 383.926 115.645 383.48 116.098C382.639 116.954 381.216 117.323 379.898 116.028C378.837 114.985 378.655 113.527 379.706 112.457C380.387 111.764 381.159 111.664 381.677 111.753C382.212 111.841 382.886 112.251 383.34 112.731L380.623 115.495C381.368 116.21 382.335 116.168 382.941 115.552C383.226 115.261 383.368 114.945 383.399 114.572C383.422 114.275 383.368 113.97 383.272 113.724ZM380.152 114.948L382.204 112.86C381.547 112.416 380.767 112.473 380.254 112.995C379.741 113.518 379.714 114.332 380.152 114.948ZM382.327 105.647L383.227 104.731C383.605 104.346 384.194 103.798 384.906 103.656C385.456 103.541 386.179 103.679 386.787 104.276C387.66 105.134 387.738 106.338 386.948 107.261L391.282 107.953L390.525 108.724L386.318 108.005L386.159 108.168L388.658 110.624L388.036 111.257L382.327 105.647ZM383.548 105.602L385.594 107.613L385.989 107.21C386.763 106.423 386.849 105.582 386.181 104.926C385.865 104.615 385.455 104.398 384.897 104.555C384.499 104.669 384.196 104.943 383.927 105.217L383.548 105.602ZM393.758 105.639C392.699 106.718 391.12 106.748 390.042 105.688C388.964 104.629 388.95 103.051 390.018 101.964C391.086 100.877 392.664 100.863 393.743 101.923C394.821 102.982 394.818 104.561 393.758 105.639ZM390.566 102.502C389.927 103.152 389.8 104.206 390.664 105.055C391.537 105.913 392.588 105.734 393.211 105.101C393.841 104.459 393.985 103.405 393.12 102.556C392.247 101.698 391.205 101.851 390.566 102.502ZM396.062 96.9941L395.557 96.4978L396.163 95.8816L399.715 99.3721L399.109 99.9884L398.613 99.5005C398.676 99.9667 398.632 100.68 398.018 101.305C397.135 102.203 395.685 102.411 394.436 101.183C393.212 99.9804 393.386 98.5364 394.277 97.6291C394.95 96.9444 395.689 96.9464 396.062 96.9941ZM394.892 98.0989C394.295 98.7066 394.194 99.7003 395.058 100.55C395.82 101.298 396.814 101.434 397.537 100.698C398.277 99.9447 398.073 98.9028 397.371 98.2131C396.455 97.3131 395.431 97.5512 394.892 98.0989ZM400.49 92.4889L397.297 89.3516L397.903 88.7354L404.142 94.8669L403.537 95.4832L403.04 94.9954C403.104 95.4615 403.059 96.1747 402.445 96.7995C401.562 97.6982 400.113 97.906 398.863 96.678C397.639 95.4753 397.813 94.0312 398.705 93.1239C399.378 92.4392 400.116 92.4413 400.49 92.4889ZM399.32 93.5938C398.723 94.2015 398.621 95.1952 399.485 96.0447C400.247 96.7932 401.241 96.9288 401.964 96.1927C402.705 95.4395 402.5 94.3976 401.798 93.7079C400.883 92.8079 399.858 93.046 399.32 93.5938Z" fill="white"/>
<path d="M540.021 84.2173L537.788 86.8235L542.609 86.4347L543.521 87.2155L538.249 87.6135L538.404 93.3717L537.474 92.5753L537.376 87.6553L537.054 87.6801L534.814 90.2954L534.139 89.7177L539.347 83.6396L540.021 84.2173ZM544.449 92.9256L544.91 92.388L545.566 92.9501L542.326 96.7319L541.67 96.1697L542.122 95.6412C541.662 95.7363 540.947 95.7403 540.282 95.1704C539.325 94.3506 539.019 92.9189 540.159 91.5884C541.275 90.2853 542.728 90.3605 543.694 91.1881C544.423 91.8128 544.471 92.5494 544.449 92.9256ZM543.267 91.8338C542.62 91.2795 541.622 91.2458 540.833 92.1662C540.138 92.9772 540.071 93.9782 540.855 94.6496C541.656 95.3367 542.682 95.0619 543.322 94.3146C544.158 93.3396 543.85 92.3335 543.267 91.8338ZM543.568 97.7966L546.809 94.0148L547.465 94.577L547.121 94.9779C547.596 94.8477 548.08 94.9465 548.481 95.2901C549.165 95.8756 549.024 96.5928 548.988 96.7829C549.844 96.5211 550.395 96.9297 550.65 97.1483C551.771 98.1086 551.076 99.1409 550.616 99.6786L548.562 102.075L547.906 101.513L549.874 99.2167C550.241 98.7884 550.67 98.1765 550.05 97.6456C549.294 96.9976 548.587 97.6563 548.197 98.1119L546.393 100.217L545.737 99.6548L547.658 97.4131C547.884 97.1488 548.565 96.373 547.872 95.7796C547.125 95.1393 546.379 95.8436 545.989 96.2993L544.225 98.3587L543.568 97.7966ZM553.699 104.28L553.988 105.049C553.699 105.165 553.34 105.252 553 105.261C552.388 105.274 551.827 105.062 551.344 104.648C550.433 103.868 549.968 102.474 551.17 101.07C552.138 99.9404 553.581 99.659 554.72 100.635C555.458 101.267 555.61 102.03 555.557 102.553C555.505 103.094 555.142 103.794 554.694 104.279L551.751 101.758C551.089 102.549 551.197 103.511 551.853 104.073C552.163 104.338 552.487 104.458 552.862 104.463C553.16 104.466 553.46 104.392 553.699 104.28ZM552.265 101.25L554.488 103.155C554.887 102.469 554.776 101.694 554.22 101.218C553.664 100.742 552.849 100.771 552.265 101.25ZM554.194 106.9L559.886 100.257L560.542 100.82L557.715 104.118C557.967 104.065 558.624 103.98 559.253 104.519C559.699 104.901 559.953 105.435 559.892 105.967C559.841 106.414 559.603 106.747 559.244 107.166L557.237 109.508L556.581 108.946L558.572 106.622C558.768 106.395 558.976 106.115 558.993 105.781C559.006 105.508 558.899 105.227 558.607 104.977C558.379 104.782 558.079 104.635 557.692 104.699C557.179 104.781 556.778 105.212 556.544 105.485L554.85 107.463L554.194 106.9ZM564.152 109.807L564.612 109.269L565.268 109.831L562.028 113.613L561.372 113.051L561.825 112.522C561.364 112.617 560.65 112.621 559.984 112.051C559.028 111.232 558.721 109.8 559.861 108.47C560.978 107.166 562.43 107.242 563.396 108.069C564.125 108.694 564.174 109.431 564.152 109.807ZM562.97 108.715C562.323 108.161 561.324 108.127 560.536 109.047C559.841 109.858 559.773 110.859 560.557 111.531C561.359 112.218 562.385 111.943 563.025 111.196C563.86 110.221 563.553 109.215 562.97 108.715ZM563.271 114.678L566.511 110.896L567.167 111.458L566.824 111.859C567.299 111.729 567.783 111.828 568.184 112.171C568.867 112.757 568.727 113.474 568.69 113.664C569.547 113.402 570.098 113.811 570.353 114.029C571.474 114.99 570.779 116.022 570.318 116.56L568.265 118.956L567.608 118.394L569.576 116.098C569.943 115.669 570.372 115.058 569.753 114.527C568.996 113.879 568.29 114.537 567.899 114.993L566.096 117.098L565.44 116.536L567.36 114.294C567.587 114.03 568.267 113.254 567.575 112.661C566.828 112.02 566.082 112.725 565.692 113.18L563.927 115.24L563.271 114.678ZM573.401 121.161L573.69 121.93C573.401 122.046 573.042 122.133 572.702 122.142C572.091 122.155 571.53 121.943 571.047 121.53C570.135 120.749 569.67 119.355 570.873 117.952C571.841 116.822 573.283 116.54 574.422 117.516C575.16 118.148 575.313 118.911 575.259 119.434C575.207 119.975 574.844 120.675 574.397 121.161L571.453 118.639C570.791 119.43 570.899 120.392 571.555 120.954C571.865 121.22 572.189 121.339 572.564 121.344C572.862 121.347 573.163 121.273 573.401 121.161ZM571.967 118.131L574.191 120.036C574.589 119.35 574.478 118.576 573.922 118.099C573.367 117.623 572.552 117.652 571.967 118.131ZM573.896 123.782L579.588 117.138L580.244 117.701L577.418 120.999C577.669 120.946 578.326 120.861 578.955 121.4C579.402 121.783 579.656 122.316 579.594 122.849C579.544 123.295 579.306 123.628 578.947 124.047L576.94 126.389L576.284 125.827L578.275 123.503C578.47 123.276 578.678 122.996 578.695 122.663C578.708 122.389 578.601 122.108 578.31 121.858C578.082 121.663 577.781 121.516 577.395 121.58C576.882 121.662 576.481 122.093 576.247 122.366L574.552 124.344L573.896 123.782ZM583.854 126.688L584.315 126.15L584.971 126.712L581.731 130.494L581.075 129.932L581.527 129.403C581.067 129.498 580.352 129.503 579.687 128.933C578.73 128.113 578.424 126.681 579.564 125.351C580.68 124.048 582.133 124.123 583.099 124.95C583.828 125.575 583.876 126.312 583.854 126.688ZM582.672 125.596C582.025 125.042 581.027 125.008 580.238 125.928C579.543 126.739 579.476 127.74 580.259 128.412C581.061 129.099 582.087 128.824 582.727 128.077C583.563 127.102 583.255 126.096 582.672 125.596ZM591.146 128.021L589.03 130.491L592.147 133.161L594.263 130.692L594.937 131.269L589.729 137.347L589.055 136.77L591.6 133.799L588.484 131.129L585.939 134.099L585.264 133.522L590.472 127.444L591.146 128.021ZM594.374 134.769L595.03 135.331L591.79 139.113L591.134 138.551L594.374 134.769ZM595.463 133.221C595.682 132.966 596.071 132.936 596.326 133.155C596.581 133.373 596.611 133.762 596.393 134.017C596.174 134.273 595.785 134.303 595.53 134.084C595.274 133.865 595.244 133.476 595.463 133.221ZM598.707 139.413L599.167 138.876L599.823 139.438L596.661 143.129C596.31 143.539 595.81 144.122 595.024 144.302C594.414 144.442 593.621 144.316 592.91 143.707C592.263 143.153 592.035 142.515 591.999 142.041C591.962 141.568 592.077 140.955 592.553 140.399L593.2 140.953C592.927 141.272 592.812 141.664 592.82 141.987C592.836 142.521 593.127 142.882 593.419 143.132C593.884 143.53 594.343 143.639 594.874 143.462C595.331 143.316 595.638 142.995 595.911 142.676L596.38 142.129C595.919 142.224 595.205 142.228 594.539 141.658C593.984 141.182 593.724 140.581 593.683 140.039C593.646 139.565 593.76 138.842 594.416 138.076C595.049 137.338 595.713 137.117 596.22 137.078C596.805 137.041 597.441 137.239 597.951 137.676C598.507 138.152 598.742 138.764 598.707 139.413ZM597.525 138.322C597.124 137.978 596.702 137.917 596.363 137.943C595.763 137.998 595.356 138.344 595.091 138.654C594.81 138.982 594.491 139.483 594.566 140.133C594.612 140.504 594.766 140.841 595.112 141.137C595.458 141.434 595.825 141.559 596.215 141.529C596.68 141.502 597.197 141.249 597.58 140.802C597.962 140.356 598.134 139.824 598.092 139.393C598.062 139.004 597.862 138.611 597.525 138.322ZM597.826 144.284L603.518 137.641L604.174 138.203L601.347 141.502C601.599 141.449 602.256 141.364 602.885 141.903C603.331 142.285 603.585 142.819 603.524 143.351C603.473 143.798 603.235 144.131 602.876 144.55L600.869 146.892L600.213 146.33L602.204 144.006C602.4 143.778 602.608 143.499 602.625 143.165C602.638 142.892 602.531 142.611 602.239 142.361C602.011 142.166 601.711 142.019 601.324 142.083C600.811 142.165 600.41 142.596 600.176 142.869L598.482 144.847L597.826 144.284ZM604.8 143.702L605.529 144.326L604.448 147.856L608.084 146.01L606.808 149.879L610.14 148.277L610.869 148.902L605.525 151.339L606.779 147.515L603.192 149.34L604.8 143.702ZM613.995 152.513L614.456 151.975L615.112 152.537L611.872 156.319L611.216 155.757L611.668 155.228C611.208 155.323 610.493 155.327 609.828 154.757C608.871 153.938 608.565 152.506 609.705 151.176C610.821 149.872 612.274 149.948 613.24 150.775C613.969 151.4 614.017 152.137 613.995 152.513ZM612.813 151.421C612.166 150.867 611.168 150.833 610.379 151.753C609.684 152.564 609.617 153.565 610.401 154.237C611.202 154.924 612.228 154.649 612.868 153.902C613.704 152.927 613.396 151.921 612.813 151.421ZM611.31 159.472L614.613 158.051L615.808 153.133L616.555 153.774L615.576 157.628L619.125 155.975L619.854 156.6L612.039 160.096L611.31 159.472Z" fill="white"/>
</svg>
